<?xml version="1.0" encoding="utf-8"?>
<!-- Generator: Adobe Illustrator 25.2.1, SVG Export Plug-In . SVG Version: 6.00 Build 0)  -->
<svg version="1.1" id="Layer_1" xmlns="http://www.w3.org/2000/svg" xmlns:xlink="http://www.w3.org/1999/xlink" x="0px" y="0px"
	 viewBox="0 0 500 500" style="enable-background:new 0 0 500 500;" xml:space="preserve">
<style type="text/css">
	.st0{fill:url(#SVGID_1_);}
	.st1{fill:url(#SVGID_2_);}
	.st2{fill:url(#SVGID_3_);}
	.st3{fill:url(#SVGID_4_);}
</style>
<g>
	<linearGradient id="SVGID_1_" gradientUnits="userSpaceOnUse" x1="30.7128" y1="334.3158" x2="364.2645" y2="247.4044">
		<stop  offset="5.586592e-03" style="stop-color:#D9B3B0"/>
		<stop  offset="0.2279" style="stop-color:#DCB8AE"/>
		<stop  offset="0.5721" style="stop-color:#E7C7A6"/>
		<stop  offset="0.9933" style="stop-color:#FAE095"/>
		<stop  offset="1" style="stop-color:#FAE195"/>
	</linearGradient>
	<path class="st0" d="M136.03,365.95c32.64,0,59.1-26.46,59.1-59.09s-26.46-59.09-59.1-59.09c-11.06,0-21.38,3.1-30.24,8.39
		c-12.25,22.92-19.21,49.09-19.21,76.89c0,2.13,0.07,4.25,0.15,6.37C97.31,355.39,115.43,365.95,136.03,365.95z"/>
	<linearGradient id="SVGID_2_" gradientUnits="userSpaceOnUse" x1="29.8973" y1="331.1861" x2="363.449" y2="244.2747">
		<stop  offset="5.586592e-03" style="stop-color:#D9B3B0"/>
		<stop  offset="0.2279" style="stop-color:#DCB8AE"/>
		<stop  offset="0.5721" style="stop-color:#E7C7A6"/>
		<stop  offset="0.9933" style="stop-color:#FAE095"/>
		<stop  offset="1" style="stop-color:#FAE195"/>
	</linearGradient>
	<path class="st1" d="M281.13,250.29c0,32.64,26.46,59.09,59.09,59.09c28.14,0,51.64-19.69,57.59-46.03
		c-14.15-29.96-37.16-54.92-65.64-71.53C303.35,195.75,281.13,220.4,281.13,250.29z"/>
	<linearGradient id="SVGID_3_" gradientUnits="userSpaceOnUse" x1="75.198" y1="505.0425" x2="408.7496" y2="418.1312">
		<stop  offset="5.586592e-03" style="stop-color:#D9B3B0"/>
		<stop  offset="0.2279" style="stop-color:#DCB8AE"/>
		<stop  offset="0.5721" style="stop-color:#E7C7A6"/>
		<stop  offset="0.9933" style="stop-color:#FAE095"/>
		<stop  offset="1" style="stop-color:#FAE195"/>
	</linearGradient>
	<path class="st2" d="M294.97,407.31c-32.64,0-59.09,26.46-59.09,59.09c0,10.93,3.02,21.13,8.2,29.91c1.96,0.07,3.92,0.15,5.91,0.15
		c39.34,0,75.43-13.91,103.62-37.06C350.14,430.06,325.23,407.31,294.97,407.31z"/>
	<linearGradient id="SVGID_4_" gradientUnits="userSpaceOnUse" x1="22.3484" y1="302.2146" x2="355.9001" y2="215.3033">
		<stop  offset="5.586592e-03" style="stop-color:#D9B3B0"/>
		<stop  offset="0.2279" style="stop-color:#DCB8AE"/>
		<stop  offset="0.5721" style="stop-color:#E7C7A6"/>
		<stop  offset="0.9933" style="stop-color:#FAE095"/>
		<stop  offset="1" style="stop-color:#FAE195"/>
	</linearGradient>
	<path class="st3" d="M410.04,299.91c-15.54,21.82-40.99,36.11-69.82,36.11c-47.34,0-85.73-38.38-85.73-85.73
		c0-27.94,13.42-52.69,34.11-68.33h32.15l22.03-23.03c-0.73-49.93-39.83-90.56-89.16-93.63V3.54h-5.28v61.59
		c-0.24,0-0.48-0.01-0.72-0.01c-3.66,0-7.27,0.21-10.82,0.62v-22.3h-3.3v22.73c-45.43,6.76-80.35,45.62-81.05,92.78l22.85,23.03
		h12.31c-21.72,8.99-41.07,22.53-56.9,39.42c1.76-0.11,3.52-0.26,5.31-0.26c47.34,0,85.73,38.38,85.73,85.73
		s-38.38,85.73-85.73,85.73c-15.34,0-29.7-4.08-42.16-11.13c17.07,55.15,62.58,97.75,119.37,110.82
		c-2.58-8.16-3.99-16.85-3.99-25.87c0-47.34,38.38-85.73,85.73-85.73c37.2,0,68.78,23.74,80.64,56.87
		c23.59-28.33,37.79-64.75,37.79-104.5C413.4,321.69,412.24,310.62,410.04,299.91z M298.73,122.94c8.22,0,14.88,6.66,14.88,14.88
		c0,8.22-6.66,14.88-14.88,14.88c-8.22,0-14.88-6.66-14.88-14.88C283.86,129.6,290.52,122.94,298.73,122.94z M244.75,87.81
		c12.93,0,23.42,10.48,23.42,23.42s-10.48,23.42-23.42,23.42c-12.93,0-23.42-10.48-23.42-23.42S231.82,87.81,244.75,87.81z
		 M239.96,169.19c-6.13,1.74-12.52-1.81-14.26-7.94c-1.75-6.13,1.81-12.52,7.94-14.26s12.52,1.81,14.26,7.94
		C249.65,161.06,246.1,167.45,239.96,169.19z"/>
</g>
</svg>
