<?xml version="1.0" encoding="utf-8"?>
<!-- Generator: Adobe Illustrator 25.2.1, SVG Export Plug-In . SVG Version: 6.00 Build 0)  -->
<svg version="1.1" id="Layer_1" xmlns="http://www.w3.org/2000/svg" xmlns:xlink="http://www.w3.org/1999/xlink" x="0px" y="0px"
	 viewBox="0 0 500 500" style="enable-background:new 0 0 500 500;" xml:space="preserve">
<style type="text/css">
	.st0{fill:#FFFFFF;}
</style>
<g>
	<path class="st0" d="M247.68,68.17c-51.26,0-92.84,41.19-93.6,92.27l22.47,22.65H319.6l21.67-22.65
		C340.52,109.36,298.94,68.17,247.68,68.17z M240.14,170.52c-6.03,1.71-12.31-1.78-14.02-7.81c-1.72-6.03,1.78-12.31,7.81-14.02
		c6.03-1.71,12.31,1.78,14.02,7.81C249.67,162.53,246.17,168.81,240.14,170.52z M244.85,136.55c-12.72,0-23.03-10.31-23.03-23.03
		s10.31-23.03,23.03-23.03s23.03,10.31,23.03,23.03S257.57,136.55,244.85,136.55z M297.94,154.3c-8.08,0-14.63-6.55-14.63-14.63
		c0-8.08,6.55-14.63,14.63-14.63c8.08,0,14.63,6.55,14.63,14.63C312.57,147.75,306.02,154.3,297.94,154.3z"/>
	<path class="st0" d="M89.44,337.94c10.4,15.71,28.22,26.09,48.48,26.09c32.1,0,58.12-26.02,58.12-58.11s-26.02-58.11-58.12-58.11
		c-10.88,0-21.03,3.05-29.74,8.25c-12.05,22.54-18.89,48.28-18.89,75.62C89.29,333.77,89.36,335.86,89.44,337.94z"/>
	<path class="st0" d="M330.82,192.78c-28.34,3.87-50.19,28.11-50.19,57.51c0,32.1,26.02,58.11,58.11,58.11
		c27.68,0,50.79-19.36,56.64-45.27C381.46,233.66,358.83,209.12,330.82,192.78z"/>
	<path class="st0" d="M351.91,455.94c-3.41-28.85-27.91-51.23-57.67-51.23c-32.1,0-58.11,26.02-58.11,58.11
		c0,10.75,2.97,20.78,8.06,29.42c1.93,0.07,3.86,0.15,5.81,0.15C288.69,492.39,324.18,478.71,351.91,455.94z"/>
	<path class="st0" d="M407.41,299.09c-15.28,21.46-40.31,35.51-68.67,35.51c-46.56,0-84.31-37.75-84.31-84.31
		c0-30.96,16.74-57.94,41.61-72.61c-14.59-4.36-30.03-6.73-46.04-6.73c-46.29,0-87.97,19.59-117.3,50.91
		c1.73-0.11,3.46-0.26,5.22-0.26c46.56,0,84.31,37.75,84.31,84.31s-37.75,84.31-84.31,84.31c-15.09,0-29.21-4.01-41.46-10.95
		c16.79,54.24,61.55,96.14,117.4,108.99c-2.54-8.03-3.92-16.57-3.92-25.44c0-46.56,37.75-84.31,84.31-84.31
		c36.59,0,67.64,23.35,79.31,55.93c23.2-27.86,37.17-63.68,37.17-102.77C410.71,320.51,409.57,309.62,407.41,299.09z"/>
	<rect x="233.79" y="46.84" class="st0" width="3.25" height="31.03"/>
	<rect x="248.39" y="7.61" class="st0" width="5.19" height="64.4"/>
</g>
</svg>
