<?xml version="1.0" encoding="utf-8"?>
<!-- Generator: Adobe Illustrator 25.2.1, SVG Export Plug-In . SVG Version: 6.00 Build 0)  -->
<svg version="1.1" id="Layer_1" xmlns="http://www.w3.org/2000/svg" xmlns:xlink="http://www.w3.org/1999/xlink" x="0px" y="0px"
	 viewBox="0 0 500 500" style="enable-background:new 0 0 500 500;" xml:space="preserve">
<style type="text/css">
	.st0{opacity:0.75;}
	.st1{fill:#74BFBF;}
</style>
<g class="st0">
	<path class="st1" d="M196.84,256.39L23.07,328.93c-2.55,1.06-3.75,3.99-2.69,6.54l7.38,17.69c1.06,2.55,3.99,3.75,6.54,2.69
		l102.07-42.61c1.41,3.8,3.63,7.37,6.68,10.43c11.35,11.35,29.76,11.35,41.12,0c8.87-8.87,10.81-22.05,5.81-32.81l16.97-7.08
		L196.84,256.39z"/>
	<path class="st1" d="M303.16,243.61l173.76-72.54c2.55-1.06,3.75-3.99,2.69-6.54l-7.38-17.69c-1.06-2.55-3.99-3.75-6.54-2.69
		l-101.15,42.22c-1.24-4.93-3.75-9.6-7.61-13.46c-11.35-11.35-29.76-11.35-41.12,0c-9.66,9.66-11.09,24.41-4.31,35.6l-18.46,7.71
		L303.16,243.61z"/>
	<path class="st1" d="M22.64,172.33l174.1,71.55l10.12-27.38l-18.54-7.62c2.78-4.45,4.4-9.7,4.4-15.34
		c0-16.06-13.02-29.07-29.07-29.07c-13.84,0-25.41,9.67-28.34,22.62L33.73,145.35c-2.55-1.05-5.48,0.17-6.53,2.72l-7.29,17.73
		C18.87,168.36,20.09,171.28,22.64,172.33z"/>
	<path class="st1" d="M477.36,327.67l-174.1-71.55l-10.12,27.38l17.01,6.99c-1.83,3.8-2.87,8.05-2.87,12.55
		c0,16.06,13.02,29.07,29.07,29.07c12.73,0,23.53-8.18,27.47-19.57l102.44,42.1c2.55,1.05,5.48-0.17,6.53-2.72l7.29-17.73
		C481.13,331.64,479.91,328.72,477.36,327.67z"/>
	<path class="st1" d="M295.82,253.76v-7.52c0-0.66-0.12-1.32-0.35-1.94l-15.1-40.86c-0.11-0.3-0.16-0.62-0.2-0.94
		c-0.35-2.39-3.25-4.27-6.74-4.27h-46.85c-3.49,0-6.39,1.88-6.74,4.27c-0.05,0.32-0.09,0.64-0.2,0.94l-15.1,40.86
		c-0.23,0.62-0.35,1.28-0.35,1.94v7.52c0,0.66,0.12,1.32,0.35,1.94l15.1,40.86c0.11,0.3,0.16,0.62,0.2,0.94
		c0.35,2.39,3.25,4.27,6.74,4.27h46.85c3.49,0,6.39-1.88,6.74-4.27c0.05-0.32,0.09-0.64,0.2-0.94l15.1-40.86
		C295.7,255.08,295.82,254.42,295.82,253.76z"/>
</g>
</svg>
