<?xml version="1.0" encoding="utf-8"?>
<!-- Generator: Adobe Illustrator 25.2.1, SVG Export Plug-In . SVG Version: 6.00 Build 0)  -->
<svg version="1.1" id="Layer_1" xmlns="http://www.w3.org/2000/svg" xmlns:xlink="http://www.w3.org/1999/xlink" x="0px" y="0px"
	 viewBox="0 0 500 500" style="enable-background:new 0 0 500 500;" xml:space="preserve">
<style type="text/css">
	.st0{fill:url(#SVGID_1_);}
	.st1{fill:url(#SVGID_2_);}
</style>
<g>
	<linearGradient id="SVGID_1_" gradientUnits="userSpaceOnUse" x1="9.7984" y1="250" x2="490.2016" y2="250">
		<stop  offset="5.586592e-03" style="stop-color:#D9B3B0"/>
		<stop  offset="0.2279" style="stop-color:#DCB8AE"/>
		<stop  offset="0.5721" style="stop-color:#E7C7A6"/>
		<stop  offset="0.9933" style="stop-color:#FAE095"/>
		<stop  offset="1" style="stop-color:#FAE195"/>
	</linearGradient>
	<path class="st0" d="M250,9.8C117.34,9.8,9.8,117.34,9.8,250S117.34,490.2,250,490.2c132.66,0,240.2-107.54,240.2-240.2
		S382.66,9.8,250,9.8z M250,450.75C139.3,450.75,49.25,360.7,49.25,250S139.3,49.25,250,49.25c110.69,0,200.75,90.06,200.75,200.75
		S360.7,450.75,250,450.75z"/>
	<linearGradient id="SVGID_2_" gradientUnits="userSpaceOnUse" x1="101.479" y1="250.0039" x2="398.522" y2="250.0039">
		<stop  offset="5.586592e-03" style="stop-color:#D9B3B0"/>
		<stop  offset="0.2279" style="stop-color:#DCB8AE"/>
		<stop  offset="0.5721" style="stop-color:#E7C7A6"/>
		<stop  offset="0.9933" style="stop-color:#FAE095"/>
		<stop  offset="1" style="stop-color:#FAE195"/>
	</linearGradient>
	<path class="st1" d="M398.41,203.09c-0.03-0.19-0.07-0.37-0.1-0.55c-0.06-0.36-0.13-0.72-0.22-1.07c-0.05-0.21-0.13-0.41-0.2-0.62
		c-0.1-0.31-0.2-0.63-0.33-0.93c-0.09-0.21-0.19-0.42-0.29-0.62c-0.13-0.29-0.27-0.57-0.43-0.84c-0.12-0.2-0.24-0.4-0.36-0.59
		c-0.17-0.27-0.35-0.52-0.54-0.77c-0.14-0.19-0.29-0.37-0.44-0.55c-0.2-0.23-0.41-0.47-0.64-0.69c-0.17-0.17-0.33-0.34-0.51-0.5
		c-0.23-0.21-0.48-0.41-0.72-0.61c-0.19-0.15-0.38-0.3-0.58-0.44c-0.07-0.05-0.14-0.11-0.21-0.16l-135.76-90.5
		c-4.29-2.86-9.87-2.86-14.16,0l-135.76,90.5c-0.07,0.05-0.14,0.11-0.21,0.16c-0.2,0.14-0.39,0.29-0.57,0.44
		c-0.25,0.19-0.49,0.4-0.72,0.61c-0.18,0.16-0.34,0.33-0.51,0.5c-0.22,0.22-0.43,0.45-0.63,0.69c-0.15,0.18-0.3,0.37-0.44,0.55
		c-0.19,0.25-0.37,0.51-0.54,0.77c-0.13,0.19-0.25,0.39-0.37,0.59c-0.16,0.27-0.3,0.55-0.43,0.84c-0.1,0.2-0.2,0.41-0.29,0.62
		c-0.13,0.3-0.23,0.62-0.33,0.93c-0.07,0.2-0.14,0.41-0.2,0.62c-0.09,0.35-0.16,0.71-0.22,1.07c-0.03,0.19-0.08,0.37-0.1,0.55
		c-0.07,0.55-0.12,1.1-0.12,1.66v90.5c0,0.56,0.04,1.12,0.12,1.67c0.02,0.18,0.07,0.37,0.1,0.55c0.07,0.36,0.13,0.72,0.22,1.07
		c0.06,0.21,0.13,0.41,0.2,0.62c0.1,0.31,0.2,0.63,0.33,0.94c0.09,0.21,0.19,0.42,0.29,0.62c0.14,0.29,0.28,0.57,0.43,0.85
		c0.12,0.2,0.24,0.39,0.37,0.59c0.17,0.27,0.35,0.52,0.54,0.77c0.14,0.2,0.29,0.38,0.44,0.55c0.2,0.23,0.41,0.47,0.63,0.69
		c0.17,0.17,0.33,0.34,0.51,0.5c0.23,0.21,0.47,0.42,0.72,0.61c0.19,0.15,0.38,0.3,0.57,0.44c0.07,0.05,0.14,0.11,0.21,0.16
		l135.76,90.51c2.14,1.43,4.61,2.15,7.08,2.15c2.46,0,4.93-0.72,7.08-2.15l135.76-90.51c0.07-0.05,0.14-0.11,0.21-0.16
		c0.2-0.14,0.39-0.29,0.58-0.44c0.25-0.2,0.49-0.4,0.72-0.61c0.18-0.16,0.34-0.33,0.51-0.5c0.22-0.22,0.43-0.45,0.64-0.69
		c0.15-0.18,0.3-0.36,0.44-0.55c0.19-0.25,0.37-0.51,0.54-0.77c0.12-0.2,0.25-0.39,0.36-0.59c0.16-0.28,0.3-0.56,0.43-0.85
		c0.1-0.2,0.2-0.41,0.29-0.62c0.12-0.31,0.23-0.63,0.33-0.94c0.07-0.2,0.14-0.41,0.2-0.62c0.09-0.35,0.16-0.71,0.22-1.07
		c0.03-0.18,0.08-0.37,0.1-0.55c0.07-0.56,0.11-1.11,0.11-1.67v-90.5C398.52,204.19,398.48,203.63,398.41,203.09z M262.76,138.1
		l100.01,66.67l-44.67,29.88l-55.34-37.02V138.1z M237.24,138.1v59.53l-55.33,37.02l-44.67-29.88L237.24,138.1z M127.01,228.64
		L158.94,250l-31.94,21.36V228.64z M237.24,361.91l-100.01-66.67l44.67-29.88l55.33,37.01V361.91z M250,280.2L204.86,250l45.15-30.2
		l45.14,30.2L250,280.2z M262.76,361.91v-59.53l55.34-37.01l44.67,29.88L262.76,361.91z M372.99,271.36L341.06,250l31.93-21.36
		V271.36z"/>
</g>
</svg>
