<?xml version="1.0" encoding="utf-8"?>
<!-- Generator: Adobe Illustrator 25.2.1, SVG Export Plug-In . SVG Version: 6.00 Build 0)  -->
<svg version="1.1" id="Layer_1" xmlns="http://www.w3.org/2000/svg" xmlns:xlink="http://www.w3.org/1999/xlink" x="0px" y="0px"
	 viewBox="0 0 500 500" style="enable-background:new 0 0 500 500;" xml:space="preserve">
<style type="text/css">
	.st0{fill:url(#SVGID_1_);}
	.st1{fill:url(#SVGID_2_);}
	.st2{fill:url(#SVGID_3_);}
	.st3{fill:url(#SVGID_4_);}
</style>
<g>
	<g>
		<linearGradient id="SVGID_1_" gradientUnits="userSpaceOnUse" x1="-61.4133" y1="416.9055" x2="439.0946" y2="327.2908">
			<stop  offset="5.586592e-03" style="stop-color:#D9B3B0"/>
			<stop  offset="0.2279" style="stop-color:#DCB8AE"/>
			<stop  offset="0.5721" style="stop-color:#E7C7A6"/>
			<stop  offset="0.9933" style="stop-color:#FAE095"/>
			<stop  offset="1" style="stop-color:#FAE195"/>
		</linearGradient>
		<path class="st0" d="M494.89,381.39H464.9c0,0-0.54,1.89,0,19.7c0.29,9.42-1.04,6.55-6.31,6.23c-4.53-0.28-5.68-7.07-5.68-11.61
			V250.32H234.44v101.09h80.55v80.53h87.38V328.27c12.85-2.58,11.99,7.72,11.99,7.72s6,68.53,10.28,80.53
			c4.28,11.99,21.42,30.84,49.26,15.42C501.74,416.52,494.89,381.39,494.89,381.39z"/>
		<linearGradient id="SVGID_2_" gradientUnits="userSpaceOnUse" x1="-91.2245" y1="250.4064" x2="409.2833" y2="160.7917">
			<stop  offset="5.586592e-03" style="stop-color:#D9B3B0"/>
			<stop  offset="0.2279" style="stop-color:#DCB8AE"/>
			<stop  offset="0.5721" style="stop-color:#E7C7A6"/>
			<stop  offset="0.9933" style="stop-color:#FAE095"/>
			<stop  offset="1" style="stop-color:#FAE195"/>
		</linearGradient>
		<path class="st1" d="M430.7,144.03c-8.32-8.45-16.62-14.27-22.55-17.9c-11.57-7.07-40.48-14.78-98.3-19.27
			c-28.75-2.24-56.06-0.5-76.27,1.81v127.97h218.9v-39.06C452.49,177.57,444.74,158.28,430.7,144.03z M295.62,196.73l-12.11,24.53
			l-12.11-24.53l-27.07-3.93l19.59-19.1l-4.63-26.97l24.22,12.73l24.22-12.73l-4.62,26.97l19.59,19.1L295.62,196.73z M393.92,196.73
			l-12.11,24.53l-12.11-24.53l-27.07-3.93l19.59-19.1l-4.63-26.97l24.22,12.73l24.22-12.73l-4.62,26.97L421,192.8L393.92,196.73z"/>
	</g>
	<g>
		<linearGradient id="SVGID_3_" gradientUnits="userSpaceOnUse" x1="-70.854" y1="364.1779" x2="429.6538" y2="274.5632">
			<stop  offset="5.586592e-03" style="stop-color:#D9B3B0"/>
			<stop  offset="0.2279" style="stop-color:#DCB8AE"/>
			<stop  offset="0.5721" style="stop-color:#E7C7A6"/>
			<stop  offset="0.9933" style="stop-color:#FAE095"/>
			<stop  offset="1" style="stop-color:#FAE195"/>
		</linearGradient>
		<path class="st2" d="M150.31,305.75c-8.13,5.42-11.14,26.85-4.94,48.53s24.01,24.01,24.01,24.01l-24.79,30.21l-11.62-10.07
			l0.77,10.07H92.7c17.82-22.46,25.56-58.87,23.1-90.63S102,250.32,102,250.32h115.42v37.34c0,0-28.02-3.85-46.48,1.55
			C155.06,293.87,150.31,305.75,150.31,305.75z"/>
		<linearGradient id="SVGID_4_" gradientUnits="userSpaceOnUse" x1="-101.6825" y1="191.9977" x2="398.8253" y2="102.3829">
			<stop  offset="5.586592e-03" style="stop-color:#D9B3B0"/>
			<stop  offset="0.2279" style="stop-color:#DCB8AE"/>
			<stop  offset="0.5721" style="stop-color:#E7C7A6"/>
			<stop  offset="0.9933" style="stop-color:#FAE095"/>
			<stop  offset="1" style="stop-color:#FAE195"/>
		</linearGradient>
		<path class="st3" d="M188.5,166.83c-26.34,0-46.48-17.82-54.22-27.11c-7.75-9.3-40.28-24.01-52.67-25.56
			c0,0-0.77-21.68-4.65-35.24c-3.87-13.56-13.94-16.66-13.94-16.66c-11.62,4.65-16.27,42.6-16.27,42.6s-9.3-3.1-13.17-16.27
			s-2.32-20.91-7.75-20.91c-5.42,0-11.62,6.98-11.62,11.24c0,4.25-6.97,21.3,0,31.37c6.97,10.07,13.17,17.96,13.17,17.96
			c-3.1,4.02-5.42,14.57-6.97,29.53c-1.55,14.96-9.3,17.57-14.72,34.61c-5.42,17.04,6.97,30.98,16.27,32.53
			c9.29,1.55,19.36-1.55,27.89-4.5c8.52-2.96,12.39-13.31,19.36-15.64c6.97-2.32,5.42,2.32,16.27,13.32
			c10.84,10.99,11.62,17.64,11.62,17.64l119.29,0.89v-75.23C216.38,161.41,214.83,166.83,188.5,166.83z M138.97,226.61l-14.14-7.43
			l-14.14,7.43l2.7-15.74l-11.44-11.15l15.81-2.3l7.07-14.32l7.07,14.32l15.81,2.3l-11.44,11.15L138.97,226.61z M198.62,226.61
			l-14.14-7.43l-14.14,7.43l2.7-15.74l-11.44-11.15l15.81-2.3l7.07-14.32l7.07,14.32l15.81,2.3l-11.44,11.15L198.62,226.61z"/>
	</g>
</g>
</svg>
