<?xml version="1.0" encoding="utf-8"?>
<!-- Generator: Adobe Illustrator 25.2.1, SVG Export Plug-In . SVG Version: 6.00 Build 0)  -->
<svg version="1.1" id="Layer_1" xmlns="http://www.w3.org/2000/svg" xmlns:xlink="http://www.w3.org/1999/xlink" x="0px" y="0px"
	 viewBox="0 0 500 500" style="enable-background:new 0 0 500 500;" xml:space="preserve">
<style type="text/css">
	.st0{fill:#80807B;}
</style>
<g>
	<path class="st0" d="M381.82,431.42c0.04-0.71,0.12-1.41,0.12-2.11c0.01-61.1,0-122.22,0-183.32c0-0.47-0.02-0.95-0.04-1.41
		c0.16-0.23,0.32-0.46,0.48-0.68c0.91-0.14,1.48-0.86,2.16-1.37c21.69-16.25,43.38-32.52,65.08-48.79
		c14.09-10.55,28.19-21.07,42.28-31.61c0,80.32,0,160.63,0,240.95c-0.86,0.55-0.61,1.54-0.8,2.31
		c-3.15,12.8-11.07,21.02-23.63,24.87c-1.3,0.4-2.77,0.25-3.92,1.17C436.31,431.42,409.07,431.42,381.82,431.42z"/>
	<path class="st0" d="M118.19,244.66c-0.01,9.84-0.03,19.67-0.03,29.51c0.01,52.41,0.02,104.83,0.02,157.25
		c-27.24,0-54.49,0-81.73,0c-0.15-0.11-0.3-0.22-0.45-0.33c-0.01,0.11-0.01,0.22-0.02,0.33c-0.47,0-0.95,0-1.41,0
		c-0.68-0.78-0.68-0.77-1.34-0.96c-12.6-3.51-20.67-11.55-24.19-24.16c-0.14-0.51,0.18-1.47-0.93-1.35c0-0.32,0-0.63,0-0.95
		c0.97-0.63,0.26-1.26,0-1.89c0-80.01,0-160,0-240c18.53,13.87,37.06,27.75,55.6,41.63c17.84,13.35,35.68,26.7,53.53,40.05
		c0.33,0.25,0.65,0.51,0.98,0.76L118.19,244.66z"/>
	<path class="st0" d="M63.38,68.58c3.73,1.12,7.6,1.59,11.26,2.98c6.25,2.37,11.61,6.13,16.87,10.15
		c8.72,6.66,17.51,13.24,26.27,19.86c-0.02,1.26-0.05,2.52-0.05,3.78c0,45.02,0,90.03-0.02,135.05c0,1.15,0.35,2.38-0.47,3.42
		c-17.85-13.35-35.7-26.7-53.53-40.05C45.17,189.88,26.64,176,8.11,162.13c0-16.38,0-32.75,0-49.13c0.4-0.23,0.4-0.63,0.46-1.01
		c2.68-19.08,13.12-32.16,30.67-39.8c4.12-1.79,8.55-2.39,12.82-3.6C55.82,68.58,59.6,68.58,63.38,68.58z"/>
	<path class="st0" d="M381.94,101.85c4.38-3.81,9.16-7.12,13.81-10.57c7.12-5.28,13.94-10.96,21.43-15.72
		c4.74-3,9.92-4.95,15.43-6.06c0.53-0.11,1.11-0.08,1.46-0.61c0.01-0.02-0.07-0.11-0.11-0.16c-0.05-0.05-0.11-0.11-0.17-0.16
		c0.47,0,0.95,0,1.41,0c-0.11,0.25-0.02,0.4,0.24,0.4c0.26,0,0.35-0.16,0.24-0.4c4.25,0,8.51,0,12.75,0
		c0.1,0.38,0.37,0.47,0.71,0.43c0.25-0.03,0.4-0.15,0.24-0.43c0.32,0,0.63,0,0.95,0c0.05,1.13,0.99,0.8,1.59,0.91
		c19.76,3.76,35.38,19.49,39.08,39.33c0.1,0.52-0.13,1.39,0.9,1.33c0,0.47,0,0.95,0,1.41c-0.7,0.47-0.58,0.95,0,1.41
		c0,16.38,0,32.75,0,49.13c-14.1,10.54-28.2,21.06-42.28,31.61c-21.69,16.25-43.38,32.52-65.08,48.79
		c-0.67,0.51-1.25,1.22-2.16,1.37c-0.46-1.14-0.25-2.34-0.25-3.51c-0.01-45.08-0.01-90.16-0.02-135.24
		C382.11,104.05,382.01,102.95,381.94,101.85z"/>
	<path class="st0" d="M35.97,431.42c0.01-0.11,0.01-0.22,0.02-0.33c0.15,0.11,0.3,0.22,0.45,0.33
		C36.28,431.42,36.13,431.42,35.97,431.42z"/>
	<path class="st0" d="M381.94,101.85c0.07,1.1,0.17,2.19,0.17,3.28c0.01,45.08,0.01,90.16,0.02,135.24c0,1.17-0.21,2.36,0.25,3.51
		c-0.16,0.23-0.32,0.46-0.48,0.68c-19.02,14.24-38.04,28.48-57.06,42.73c-24.25,18.16-48.49,36.33-72.69,54.55
		c-1.56,1.17-2.53,1.34-4.2,0.08c-42.64-32.07-85.33-64.06-128.01-96.06c-0.56-0.42-1.16-0.8-1.75-1.19l0.01-0.1
		c-0.01-46.74-0.02-93.5-0.01-140.24c0-0.76-0.18-1.6,0.47-2.23c43,32.23,86,64.46,128.95,96.74c1.8,1.36,2.89,1.43,4.76,0.04
		c42.76-32.17,85.57-64.24,128.38-96.33C381.1,102.26,381.54,102.08,381.94,101.85z"/>
	<path class="st0" d="M118.66,102.09c-0.66,0.63-0.47,1.47-0.47,2.23c0,46.74,0.01,93.5,0.01,140.24c-0.33-0.25-0.65-0.51-0.98-0.76
		c0.81-1.05,0.47-2.28,0.47-3.42c0.02-45.02,0.01-90.03,0.02-135.05c0-1.26,0.03-2.52,0.05-3.78
		C118.07,101.73,118.36,101.92,118.66,102.09z"/>
</g>
</svg>
