<?xml version="1.0" encoding="utf-8"?>
<!-- Generator: Adobe Illustrator 25.2.1, SVG Export Plug-In . SVG Version: 6.00 Build 0)  -->
<svg version="1.1" id="Layer_1" xmlns="http://www.w3.org/2000/svg" xmlns:xlink="http://www.w3.org/1999/xlink" x="0px" y="0px"
	 viewBox="0 0 500 500" style="enable-background:new 0 0 500 500;" xml:space="preserve">
<style type="text/css">
	.st0{opacity:0.75;fill:#74BFBF;}
</style>
<path class="st0" d="M463.66,230.56l-79.88,46.12v-58.33c0-7.71-6.25-13.96-13.96-13.96h-54.15c22.19-15.48,36.72-41.19,36.72-70.3
	c0-47.32-38.36-85.68-85.68-85.68c-28.31,0-53.41,13.74-69.01,34.91c-15.6-21.17-40.7-34.91-69.01-34.91
	c-47.32,0-85.68,38.36-85.68,85.68c0,29.11,14.53,54.81,36.72,70.3H29.36c-7.71,0-13.96,6.25-13.96,13.96v219.28
	c0,7.71,6.25,13.96,13.96,13.96h340.45c7.71,0,13.96-6.25,13.96-13.96v-58.33l79.88,46.12c9.31,5.37,20.94-1.34,20.94-12.09V242.65
	C484.6,231.9,472.96,225.19,463.66,230.56z M197.69,184.87c5.56,7.55,12.34,14.15,20.04,19.52h-40.08
	C185.35,199.02,192.12,192.42,197.69,184.87z"/>
</svg>
