<?xml version="1.0" encoding="utf-8"?>
<!-- Generator: Adobe Illustrator 25.2.1, SVG Export Plug-In . SVG Version: 6.00 Build 0)  -->
<svg version="1.1" id="Layer_1" xmlns="http://www.w3.org/2000/svg" xmlns:xlink="http://www.w3.org/1999/xlink" x="0px" y="0px"
	 viewBox="0 0 500 500" style="enable-background:new 0 0 500 500;" xml:space="preserve">
<style type="text/css">
	.st0{fill-rule:evenodd;clip-rule:evenodd;fill:url(#SVGID_1_);}
	.st1{fill:url(#SVGID_2_);}
	.st2{fill:url(#SVGID_3_);}
	.st3{fill:url(#SVGID_4_);}
	.st4{fill:url(#SVGID_5_);}
	.st5{fill:url(#SVGID_6_);}
	.st6{fill:url(#SVGID_7_);}
	.st7{fill:url(#SVGID_8_);}
</style>
<g>
	<linearGradient id="SVGID_1_" gradientUnits="userSpaceOnUse" x1="-29.5228" y1="370.7212" x2="402.4772" y2="191.9347">
		<stop  offset="5.586592e-03" style="stop-color:#D9B3B0"/>
		<stop  offset="0.2279" style="stop-color:#DCB8AE"/>
		<stop  offset="0.5721" style="stop-color:#E7C7A6"/>
		<stop  offset="0.9933" style="stop-color:#FAE095"/>
		<stop  offset="1" style="stop-color:#FAE195"/>
	</linearGradient>
	<path class="st0" d="M249.86,15.37c-132.38,0-239.72,107.32-239.72,239.72c0,105.92,68.69,195.77,163.94,227.47
		c11.98,2.22,16.38-5.2,16.38-11.53c0-5.71-0.22-24.6-0.33-44.63c-66.69,14.5-80.76-28.28-80.76-28.28
		c-10.9-27.71-26.62-35.08-26.62-35.08c-21.75-14.88,1.64-14.57,1.64-14.57c24.07,1.69,36.75,24.71,36.75,24.71
		c21.38,36.65,56.08,26.05,69.76,19.93c2.15-15.49,8.36-26.07,15.22-32.06C152.87,354.99,96.9,334.43,96.9,242.58
		c0-26.17,9.37-47.56,24.7-64.34c-2.49-6.04-10.7-30.42,2.32-63.44c0,0,20.13-6.44,65.94,24.58c19.12-5.31,39.63-7.98,60-8.07
		c20.37,0.09,40.9,2.76,60.05,8.07c45.76-31.02,65.86-24.58,65.86-24.58c13.05,33.02,4.84,57.4,2.35,63.44
		c15.37,16.79,24.67,38.17,24.67,64.34c0,92.08-56.08,112.35-109.46,118.28c8.6,7.44,16.26,22.03,16.26,44.39
		c0,32.08-0.28,57.89-0.28,65.79c0,6.38,4.31,13.86,16.46,11.5c95.2-31.73,163.8-121.56,163.8-227.44
		C489.58,122.69,382.25,15.37,249.86,15.37z"/>
	<linearGradient id="SVGID_2_" gradientUnits="userSpaceOnUse" x1="-15.3614" y1="404.9392" x2="416.6386" y2="226.1527">
		<stop  offset="5.586592e-03" style="stop-color:#D9B3B0"/>
		<stop  offset="0.2279" style="stop-color:#DCB8AE"/>
		<stop  offset="0.5721" style="stop-color:#E7C7A6"/>
		<stop  offset="0.9933" style="stop-color:#FAE095"/>
		<stop  offset="1" style="stop-color:#FAE195"/>
	</linearGradient>
	<path class="st1" d="M100.93,359.55c-0.53,1.19-2.4,1.55-4.11,0.73c-1.74-0.78-2.71-2.41-2.15-3.6c0.52-1.23,2.39-1.57,4.13-0.75
		C100.54,356.72,101.53,358.36,100.93,359.55L100.93,359.55z"/>
	<linearGradient id="SVGID_3_" gradientUnits="userSpaceOnUse" x1="-10.6263" y1="416.3805" x2="421.3737" y2="237.5939">
		<stop  offset="5.586592e-03" style="stop-color:#D9B3B0"/>
		<stop  offset="0.2279" style="stop-color:#DCB8AE"/>
		<stop  offset="0.5721" style="stop-color:#E7C7A6"/>
		<stop  offset="0.9933" style="stop-color:#FAE095"/>
		<stop  offset="1" style="stop-color:#FAE195"/>
	</linearGradient>
	<path class="st2" d="M110.64,370.39c-1.14,1.06-3.38,0.57-4.9-1.11c-1.57-1.67-1.86-3.91-0.7-4.98c1.18-1.06,3.35-0.56,4.92,1.11
		C111.53,367.09,111.84,369.31,110.64,370.39L110.64,370.39z"/>
	<linearGradient id="SVGID_4_" gradientUnits="userSpaceOnUse" x1="-4.6465" y1="430.8294" x2="427.3535" y2="252.0429">
		<stop  offset="5.586592e-03" style="stop-color:#D9B3B0"/>
		<stop  offset="0.2279" style="stop-color:#DCB8AE"/>
		<stop  offset="0.5721" style="stop-color:#E7C7A6"/>
		<stop  offset="0.9933" style="stop-color:#FAE095"/>
		<stop  offset="1" style="stop-color:#FAE195"/>
	</linearGradient>
	<path class="st3" d="M120.1,384.19c-1.47,1.02-3.87,0.07-5.36-2.07c-1.47-2.13-1.47-4.69,0.03-5.71c1.49-1.02,3.85-0.1,5.36,2.01
		C121.6,380.59,121.6,383.15,120.1,384.19L120.1,384.19z"/>
	<linearGradient id="SVGID_5_" gradientUnits="userSpaceOnUse" x1="1.9309" y1="446.7223" x2="433.9309" y2="267.9358">
		<stop  offset="5.586592e-03" style="stop-color:#D9B3B0"/>
		<stop  offset="0.2279" style="stop-color:#DCB8AE"/>
		<stop  offset="0.5721" style="stop-color:#E7C7A6"/>
		<stop  offset="0.9933" style="stop-color:#FAE095"/>
		<stop  offset="1" style="stop-color:#FAE195"/>
	</linearGradient>
	<path class="st4" d="M133.04,397.53c-1.31,1.45-4.11,1.06-6.16-0.92c-2.1-1.93-2.68-4.68-1.36-6.12c1.33-1.45,4.15-1.04,6.21,0.92
		C133.81,393.34,134.44,396.1,133.04,397.53L133.04,397.53z"/>
	<linearGradient id="SVGID_6_" gradientUnits="userSpaceOnUse" x1="7.8162" y1="460.9429" x2="439.8162" y2="282.1564">
		<stop  offset="5.586592e-03" style="stop-color:#D9B3B0"/>
		<stop  offset="0.2279" style="stop-color:#DCB8AE"/>
		<stop  offset="0.5721" style="stop-color:#E7C7A6"/>
		<stop  offset="0.9933" style="stop-color:#FAE095"/>
		<stop  offset="1" style="stop-color:#FAE195"/>
	</linearGradient>
	<path class="st5" d="M150.91,405.28c-0.58,1.88-3.28,2.73-5.99,1.93c-2.71-0.82-4.49-3.02-3.94-4.92c0.56-1.89,3.27-2.78,6.01-1.93
		C149.69,401.18,151.47,403.36,150.91,405.28L150.91,405.28z"/>
	<linearGradient id="SVGID_7_" gradientUnits="userSpaceOnUse" x1="11.7257" y1="470.3893" x2="443.7256" y2="291.6028">
		<stop  offset="5.586592e-03" style="stop-color:#D9B3B0"/>
		<stop  offset="0.2279" style="stop-color:#DCB8AE"/>
		<stop  offset="0.5721" style="stop-color:#E7C7A6"/>
		<stop  offset="0.9933" style="stop-color:#FAE095"/>
		<stop  offset="1" style="stop-color:#FAE195"/>
	</linearGradient>
	<path class="st6" d="M170.53,406.71c0.07,1.98-2.24,3.62-5.09,3.65c-2.86,0.07-5.19-1.54-5.22-3.48c0-2,2.25-3.62,5.12-3.67
		C168.19,403.16,170.53,404.75,170.53,406.71L170.53,406.71z"/>
	<linearGradient id="SVGID_8_" gradientUnits="userSpaceOnUse" x1="13.592" y1="474.8989" x2="445.592" y2="296.1124">
		<stop  offset="5.586592e-03" style="stop-color:#D9B3B0"/>
		<stop  offset="0.2279" style="stop-color:#DCB8AE"/>
		<stop  offset="0.5721" style="stop-color:#E7C7A6"/>
		<stop  offset="0.9933" style="stop-color:#FAE095"/>
		<stop  offset="1" style="stop-color:#FAE195"/>
	</linearGradient>
	<path class="st7" d="M188.78,403.6c0.34,1.93-1.64,3.91-4.47,4.43c-2.78,0.51-5.36-0.68-5.71-2.59c-0.34-1.98,1.67-3.96,4.45-4.47
		C185.88,400.48,188.42,401.64,188.78,403.6L188.78,403.6z"/>
</g>
</svg>
