<?xml version="1.0" encoding="utf-8"?>
<!-- Generator: Adobe Illustrator 25.2.1, SVG Export Plug-In . SVG Version: 6.00 Build 0)  -->
<svg version="1.1" id="Layer_1" xmlns="http://www.w3.org/2000/svg" xmlns:xlink="http://www.w3.org/1999/xlink" x="0px" y="0px"
	 viewBox="0 0 500 500" style="enable-background:new 0 0 500 500;" xml:space="preserve">
<style type="text/css">
	.st0{fill-rule:evenodd;clip-rule:evenodd;fill:#FFFFFF;}
	.st1{fill:#FFFFFF;}
</style>
<g>
	<path class="st0" d="M250,16.2c-132.38,0-239.72,107.32-239.72,239.72c0,105.92,68.69,195.77,163.94,227.47
		c11.98,2.22,16.38-5.2,16.38-11.53c0-5.71-0.22-24.6-0.33-44.63c-66.69,14.5-80.76-28.28-80.76-28.28
		c-10.9-27.71-26.62-35.08-26.62-35.08c-21.75-14.88,1.64-14.57,1.64-14.57c24.07,1.69,36.75,24.71,36.75,24.71
		c21.38,36.65,56.08,26.05,69.76,19.93c2.15-15.49,8.36-26.07,15.22-32.06c-53.25-6.06-109.22-26.62-109.22-118.47
		c0-26.17,9.37-47.56,24.7-64.34c-2.49-6.04-10.7-30.42,2.32-63.44c0,0,20.13-6.44,65.94,24.58c19.12-5.31,39.63-7.98,60-8.07
		c20.37,0.09,40.9,2.76,60.05,8.07c45.76-31.02,65.86-24.58,65.86-24.58c13.05,33.02,4.84,57.4,2.35,63.44
		c15.37,16.79,24.67,38.17,24.67,64.34c0,92.08-56.08,112.35-109.46,118.28c8.6,7.44,16.26,22.03,16.26,44.39
		c0,32.08-0.28,57.89-0.28,65.79c0,6.38,4.31,13.86,16.46,11.5c95.2-31.73,163.8-121.56,163.8-227.44
		C489.72,123.52,382.39,16.2,250,16.2z"/>
	<path class="st1" d="M101.07,360.38c-0.53,1.19-2.4,1.55-4.11,0.73c-1.74-0.78-2.71-2.41-2.15-3.6c0.52-1.23,2.39-1.57,4.13-0.75
		C100.68,357.55,101.67,359.19,101.07,360.38L101.07,360.38z M98.12,358.2"/>
	<path class="st1" d="M110.78,371.22c-1.14,1.06-3.38,0.57-4.9-1.11c-1.57-1.67-1.86-3.91-0.7-4.98c1.18-1.06,3.35-0.56,4.92,1.11
		C111.67,367.92,111.98,370.14,110.78,371.22L110.78,371.22z M108.5,368.76"/>
	<path class="st1" d="M120.24,385.02c-1.47,1.02-3.87,0.07-5.36-2.07c-1.47-2.13-1.47-4.69,0.03-5.71c1.49-1.02,3.85-0.1,5.36,2.01
		C121.74,381.42,121.74,383.98,120.24,385.02L120.24,385.02z M120.24,385.02"/>
	<path class="st1" d="M133.18,398.36c-1.31,1.45-4.11,1.06-6.16-0.92c-2.1-1.93-2.68-4.68-1.36-6.12c1.33-1.45,4.15-1.04,6.21,0.92
		C133.95,394.17,134.58,396.93,133.18,398.36L133.18,398.36z M133.18,398.36"/>
	<path class="st1" d="M151.05,406.11c-0.58,1.88-3.28,2.73-5.99,1.93c-2.71-0.82-4.49-3.02-3.94-4.92c0.56-1.89,3.27-2.78,6.01-1.93
		C149.83,402.01,151.61,404.19,151.05,406.11L151.05,406.11z M151.05,406.11"/>
	<path class="st1" d="M170.67,407.54c0.07,1.98-2.24,3.62-5.09,3.65c-2.86,0.07-5.19-1.54-5.22-3.48c0-2,2.25-3.62,5.12-3.67
		C168.33,403.99,170.67,405.58,170.67,407.54L170.67,407.54z M170.67,407.54"/>
	<path class="st1" d="M188.92,404.43c0.34,1.93-1.64,3.91-4.47,4.43c-2.78,0.51-5.36-0.68-5.71-2.59c-0.34-1.98,1.67-3.96,4.45-4.47
		C186.02,401.31,188.56,402.47,188.92,404.43L188.92,404.43z M188.92,404.43"/>
</g>
</svg>
