<?xml version="1.0" encoding="utf-8"?>
<!-- Generator: Adobe Illustrator 25.2.1, SVG Export Plug-In . SVG Version: 6.00 Build 0)  -->
<svg version="1.1" id="Layer_1" xmlns="http://www.w3.org/2000/svg" xmlns:xlink="http://www.w3.org/1999/xlink" x="0px" y="0px"
	 viewBox="0 0 500 500" style="enable-background:new 0 0 500 500;" xml:space="preserve">
<style type="text/css">
	.st0{fill-rule:evenodd;clip-rule:evenodd;fill:#80807B;}
	.st1{fill:#80807B;}
</style>
<g>
	<path class="st0" d="M250,24.51c-127.67,0-231.2,103.5-231.2,231.2c0,102.15,66.25,188.81,158.11,219.38
		c11.55,2.14,15.8-5.02,15.8-11.12c0-5.51-0.21-23.73-0.32-43.04c-64.32,13.98-77.89-27.27-77.89-27.27
		c-10.51-26.72-25.67-33.83-25.67-33.83c-20.98-14.35,1.58-14.05,1.58-14.05c23.21,1.63,35.44,23.83,35.44,23.83
		c20.62,35.35,54.09,25.12,67.28,19.22c2.07-14.94,8.06-25.14,14.68-30.92c-51.36-5.84-105.34-25.67-105.34-114.26
		c0-25.24,9.04-45.87,23.82-62.05c-2.4-5.83-10.32-29.34,2.24-61.18c0,0,19.41-6.21,63.6,23.71c18.44-5.12,38.22-7.7,57.87-7.78
		c19.65,0.09,39.45,2.66,57.91,7.78c44.13-29.92,63.52-23.71,63.52-23.71c12.59,31.85,4.67,55.36,2.27,61.18
		c14.82,16.19,23.79,36.81,23.79,62.05c0,88.81-54.09,108.35-105.57,114.07c8.29,7.18,15.68,21.25,15.68,42.81
		c0,30.94-0.27,55.83-0.27,63.45c0,6.15,4.16,13.37,15.87,11.09c91.81-30.6,157.98-117.24,157.98-219.35
		C481.2,128.01,377.69,24.51,250,24.51z"/>
	<path class="st1" d="M106.37,356.45c-0.51,1.15-2.31,1.49-3.96,0.7c-1.68-0.75-2.61-2.32-2.07-3.47c0.5-1.19,2.31-1.51,3.98-0.72
		C105.99,353.72,106.95,355.3,106.37,356.45L106.37,356.45z"/>
	<path class="st1" d="M115.74,366.9c-1.1,1.02-3.26,0.55-4.73-1.07c-1.51-1.61-1.79-3.77-0.68-4.8c1.14-1.02,3.23-0.54,4.75,1.07
		C116.59,363.72,116.89,365.86,115.74,366.9L115.74,366.9z"/>
	<path class="st1" d="M124.86,380.21c-1.42,0.98-3.73,0.07-5.17-2c-1.42-2.05-1.42-4.52,0.03-5.51c1.44-0.98,3.71-0.1,5.17,1.94
		C126.31,376.74,126.31,379.21,124.86,380.21L124.86,380.21z"/>
	<path class="st1" d="M137.34,393.08c-1.26,1.4-3.96,1.02-5.94-0.89c-2.03-1.86-2.58-4.51-1.31-5.9c1.28-1.4,4-1,5.99,0.89
		C138.08,389.04,138.69,391.7,137.34,393.08L137.34,393.08z"/>
	<path class="st1" d="M154.57,400.55c-0.56,1.81-3.16,2.63-5.78,1.86c-2.61-0.79-4.33-2.91-3.8-4.75c0.54-1.82,3.15-2.68,5.8-1.86
		C153.4,396.6,155.11,398.7,154.57,400.55L154.57,400.55z"/>
	<path class="st1" d="M173.5,401.93c0.07,1.91-2.16,3.49-4.91,3.52c-2.76,0.07-5.01-1.49-5.03-3.36c0-1.93,2.17-3.49,4.94-3.54
		C171.24,398.51,173.5,400.04,173.5,401.93L173.5,401.93z"/>
	<path class="st1" d="M191.1,398.93c0.33,1.86-1.58,3.77-4.31,4.27c-2.68,0.49-5.17-0.66-5.51-2.5c-0.33-1.91,1.61-3.82,4.29-4.31
		C188.3,395.92,190.75,397.04,191.1,398.93L191.1,398.93z"/>
</g>
</svg>
