<?xml version="1.0" encoding="utf-8"?>
<!-- Generator: Adobe Illustrator 25.2.1, SVG Export Plug-In . SVG Version: 6.00 Build 0)  -->
<svg version="1.1" id="Layer_1" xmlns="http://www.w3.org/2000/svg" xmlns:xlink="http://www.w3.org/1999/xlink" x="0px" y="0px"
	 viewBox="0 0 500 500" style="enable-background:new 0 0 500 500;" xml:space="preserve">
<style type="text/css">
	.st0{fill:#FFFFFF;}
	.st1{fill:#E6E7E8;}
	.st2{fill:#000206;}
</style>
<g>
	<path class="st0" d="M371.35,417.01c0.04-0.65,0.11-1.3,0.11-1.94c0.01-56.25,0-112.51,0-168.76c0-0.43-0.02-0.87-0.04-1.3
		c0.15-0.21,0.29-0.42,0.44-0.63c0.84-0.13,1.36-0.79,1.99-1.26c19.97-14.96,39.93-29.94,59.91-44.91
		c12.97-9.71,25.95-19.4,38.92-29.1c0,73.94,0,147.87,0,221.81c-0.79,0.51-0.56,1.42-0.74,2.13c-2.9,11.78-10.19,19.35-21.75,22.89
		c-1.2,0.37-2.55,0.23-3.61,1.08C421.51,417.01,396.43,417.01,371.35,417.01z"/>
	<path class="st0" d="M128.66,245.08c-0.01,9.06-0.03,18.11-0.03,27.17c0.01,48.25,0.02,96.5,0.02,144.76c-25.08,0-50.16,0-75.24,0
		c-0.14-0.1-0.28-0.2-0.41-0.3c-0.01,0.1-0.01,0.2-0.02,0.3c-0.43,0-0.87,0-1.3,0c-0.63-0.72-0.63-0.71-1.23-0.88
		c-11.6-3.23-19.03-10.63-22.27-22.24c-0.13-0.47,0.17-1.35-0.86-1.24c0-0.29,0-0.58,0-0.87c0.89-0.58,0.24-1.16,0-1.74
		c0-73.65,0-147.29,0-220.94c17.06,12.77,34.12,25.55,51.18,38.32c16.42,12.29,32.85,24.58,49.28,36.87c0.3,0.23,0.6,0.47,0.9,0.7
		L128.66,245.08z"/>
	<path class="st1" d="M78.2,82.99c3.43,1.03,7,1.46,10.37,2.74c5.75,2.18,10.69,5.64,15.53,9.34c8.03,6.13,16.12,12.19,24.18,18.28
		c-0.02,1.16-0.05,2.32-0.05,3.48c0,41.44,0,82.88-0.02,124.32c0,1.06,0.32,2.19-0.43,3.15c-16.43-12.29-32.86-24.58-49.28-36.87
		c-17.06-12.77-34.12-25.55-51.18-38.32c0-15.08,0-30.15,0-45.23c0.37-0.21,0.37-0.58,0.42-0.93c2.47-17.56,12.08-29.61,28.23-36.64
		c3.79-1.65,7.87-2.2,11.8-3.31C71.24,82.99,74.72,82.99,78.2,82.99z"/>
	<path class="st1" d="M371.46,113.62c4.03-3.51,8.43-6.55,12.71-9.73c6.55-4.86,12.83-10.09,19.73-14.47
		c4.36-2.76,9.13-4.56,14.2-5.58c0.49-0.1,1.02-0.07,1.34-0.56c0.01-0.02-0.06-0.1-0.1-0.15c-0.05-0.05-0.1-0.1-0.16-0.15
		c0.43,0,0.87,0,1.3,0c-0.1,0.23-0.02,0.37,0.22,0.37c0.24,0,0.32-0.15,0.22-0.37c3.91,0,7.83,0,11.74,0
		c0.09,0.35,0.34,0.43,0.65,0.4c0.23-0.03,0.37-0.14,0.22-0.4c0.29,0,0.58,0,0.87,0c0.05,1.04,0.91,0.74,1.46,0.84
		c18.19,3.46,32.57,17.94,35.98,36.21c0.09,0.48-0.12,1.28,0.83,1.22c0,0.43,0,0.87,0,1.3c-0.64,0.43-0.53,0.87,0,1.3
		c0,15.08,0,30.15,0,45.23c-12.98,9.7-25.96,19.39-38.92,29.1c-19.97,14.96-39.93,29.94-59.91,44.91c-0.62,0.47-1.15,1.12-1.99,1.26
		c-0.42-1.05-0.23-2.15-0.23-3.23c-0.01-41.5-0.01-83-0.02-124.5C371.62,115.64,371.52,114.63,371.46,113.62z"/>
	<path class="st2" d="M52.97,417.01c0.01-0.1,0.01-0.2,0.02-0.3c0.14,0.1,0.28,0.2,0.41,0.3C53.26,417.01,53.12,417.01,52.97,417.01
		z"/>
	<path class="st0" d="M371.46,113.62c0.06,1.01,0.16,2.02,0.16,3.02c0.01,41.5,0.01,83,0.02,124.5c0,1.08-0.19,2.17,0.23,3.23
		c-0.15,0.21-0.29,0.42-0.44,0.63c-17.51,13.11-35.02,26.22-52.53,39.34c-22.32,16.72-44.64,33.44-66.92,50.22
		c-1.44,1.08-2.33,1.23-3.87,0.07c-39.25-29.52-78.55-58.97-117.84-88.43c-0.52-0.39-1.07-0.74-1.61-1.1c0,0,0.01-0.09,0.01-0.09
		c-0.01-43.03-0.02-86.07-0.01-129.1c0-0.7-0.17-1.47,0.43-2.05c39.58,29.67,79.17,59.34,118.71,89.06
		c1.66,1.25,2.66,1.32,4.38,0.04c39.36-29.61,78.77-59.14,118.18-88.68C370.69,114,371.09,113.83,371.46,113.62z"/>
	<path class="st1" d="M129.09,113.84c-0.61,0.58-0.43,1.35-0.43,2.05c0,43.03,0.01,86.07,0.01,129.1c-0.3-0.23-0.6-0.47-0.9-0.7
		c0.75-0.97,0.43-2.1,0.43-3.15c0.02-41.44,0.01-82.88,0.02-124.32c0-1.16,0.03-2.32,0.05-3.48
		C128.55,113.51,128.82,113.68,129.09,113.84z"/>
</g>
</svg>
