<?xml version="1.0" encoding="utf-8"?>
<!-- Generator: Adobe Illustrator 25.2.1, SVG Export Plug-In . SVG Version: 6.00 Build 0)  -->
<svg version="1.1" id="Layer_1" xmlns="http://www.w3.org/2000/svg" xmlns:xlink="http://www.w3.org/1999/xlink" x="0px" y="0px"
	 viewBox="0 0 500 500" style="enable-background:new 0 0 500 500;" xml:space="preserve">
<style type="text/css">
	.st0{fill:url(#SVGID_1_);}
	.st1{fill:url(#SVGID_2_);}
	.st2{fill:url(#SVGID_3_);}
	.st3{fill:url(#SVGID_4_);}
	.st4{fill:url(#SVGID_5_);}
	.st5{fill:url(#SVGID_6_);}
	.st6{fill:url(#SVGID_7_);}
</style>
<g>
	<linearGradient id="SVGID_1_" gradientUnits="userSpaceOnUse" x1="-25.7819" y1="452.1871" x2="418.6009" y2="316.206">
		<stop  offset="5.586592e-03" style="stop-color:#D9B3B0"/>
		<stop  offset="0.2279" style="stop-color:#DCB8AE"/>
		<stop  offset="0.5721" style="stop-color:#E7C7A6"/>
		<stop  offset="0.9933" style="stop-color:#FAE095"/>
		<stop  offset="1" style="stop-color:#FAE195"/>
	</linearGradient>
	<path class="st0" d="M383.32,433.48c0.04-0.71,0.12-1.43,0.12-2.13c0.01-61.8,0-123.6,0-185.4c0-0.47-0.02-0.96-0.04-1.43
		c0.16-0.23,0.32-0.46,0.48-0.69c0.92-0.14,1.49-0.87,2.19-1.38c21.94-16.44,43.87-32.89,65.82-49.34
		c14.25-10.67,28.51-21.31,42.76-31.97c0,81.23,0,162.45,0,243.68c-0.87,0.56-0.62,1.56-0.81,2.34
		c-3.19,12.94-11.19,21.26-23.89,25.15c-1.32,0.41-2.8,0.25-3.97,1.19C438.42,433.48,410.87,433.48,383.32,433.48z"/>
	<linearGradient id="SVGID_2_" gradientUnits="userSpaceOnUse" x1="-61.6871" y1="334.8499" x2="382.6957" y2="198.8687">
		<stop  offset="5.586592e-03" style="stop-color:#D9B3B0"/>
		<stop  offset="0.2279" style="stop-color:#DCB8AE"/>
		<stop  offset="0.5721" style="stop-color:#E7C7A6"/>
		<stop  offset="0.9933" style="stop-color:#FAE095"/>
		<stop  offset="1" style="stop-color:#FAE195"/>
	</linearGradient>
	<path class="st1" d="M116.69,244.59c-0.01,9.95-0.03,19.9-0.03,29.85c0.01,53.01,0.02,106.02,0.02,159.04c-27.55,0-55.11,0-82.66,0
		c-0.15-0.11-0.31-0.22-0.45-0.33c-0.01,0.11-0.01,0.22-0.02,0.33c-0.47,0-0.96,0-1.43,0c-0.69-0.79-0.69-0.78-1.35-0.97
		c-12.74-3.55-20.91-11.68-24.47-24.43c-0.14-0.52,0.19-1.48-0.94-1.36c0-0.32,0-0.64,0-0.96c0.98-0.64,0.26-1.27,0-1.91
		c0-80.91,0-161.81,0-242.73c18.74,14.03,37.48,28.07,56.23,42.1c18.04,13.5,36.09,27,54.14,40.51c0.33,0.25,0.66,0.52,0.99,0.77
		L116.69,244.59z"/>
	<linearGradient id="SVGID_3_" gradientUnits="userSpaceOnUse" x1="-99.6766" y1="210.7012" x2="344.7062" y2="74.7201">
		<stop  offset="5.586592e-03" style="stop-color:#D9B3B0"/>
		<stop  offset="0.2279" style="stop-color:#DCB8AE"/>
		<stop  offset="0.5721" style="stop-color:#E7C7A6"/>
		<stop  offset="0.9933" style="stop-color:#FAE095"/>
		<stop  offset="1" style="stop-color:#FAE195"/>
	</linearGradient>
	<path class="st2" d="M61.26,66.52c3.77,1.13,7.69,1.6,11.39,3.01c6.32,2.39,11.74,6.2,17.06,10.26
		c8.82,6.73,17.71,13.39,26.56,20.08c-0.02,1.27-0.05,2.55-0.05,3.82c0,45.53,0,91.05-0.02,136.58c0,1.16,0.35,2.41-0.47,3.46
		c-18.05-13.5-36.1-27-54.14-40.51c-18.74-14.03-37.48-28.07-56.23-42.1c0-16.57,0-33.12,0-49.69c0.41-0.23,0.41-0.64,0.46-1.02
		c2.71-19.29,13.27-32.53,31.01-40.25c4.16-1.81,8.65-2.42,12.96-3.64C53.61,66.52,57.44,66.52,61.26,66.52z"/>
	<linearGradient id="SVGID_4_" gradientUnits="userSpaceOnUse" x1="-71.5904" y1="302.4863" x2="372.7924" y2="166.5051">
		<stop  offset="5.586592e-03" style="stop-color:#D9B3B0"/>
		<stop  offset="0.2279" style="stop-color:#DCB8AE"/>
		<stop  offset="0.5721" style="stop-color:#E7C7A6"/>
		<stop  offset="0.9933" style="stop-color:#FAE095"/>
		<stop  offset="1" style="stop-color:#FAE195"/>
	</linearGradient>
	<path class="st3" d="M383.44,100.17c4.43-3.86,9.26-7.2,13.96-10.69c7.2-5.34,14.1-11.08,21.68-15.9
		c4.79-3.03,10.03-5.01,15.6-6.13c0.54-0.11,1.12-0.08,1.47-0.62c0.01-0.02-0.07-0.11-0.11-0.16c-0.05-0.05-0.11-0.11-0.18-0.16
		c0.47,0,0.96,0,1.43,0c-0.11,0.25-0.02,0.41,0.24,0.41c0.26,0,0.35-0.16,0.24-0.41c4.3,0,8.6,0,12.9,0
		c0.1,0.38,0.37,0.47,0.71,0.44c0.25-0.03,0.41-0.15,0.24-0.44c0.32,0,0.64,0,0.96,0c0.05,1.14,1,0.81,1.6,0.92
		c19.98,3.8,35.78,19.71,39.53,39.78c0.1,0.53-0.13,1.41,0.91,1.34c0,0.47,0,0.96,0,1.43c-0.7,0.47-0.58,0.96,0,1.43
		c0,16.57,0,33.12,0,49.69c-14.26,10.66-28.52,21.3-42.76,31.97c-21.94,16.44-43.87,32.89-65.82,49.34
		c-0.68,0.52-1.26,1.23-2.19,1.38c-0.46-1.15-0.25-2.36-0.25-3.55c-0.01-45.59-0.01-91.18-0.02-136.78
		C383.61,102.39,383.5,101.28,383.44,100.17z"/>
	<linearGradient id="SVGID_5_" gradientUnits="userSpaceOnUse" x1="-25.9622" y1="451.598" x2="418.4207" y2="315.6169">
		<stop  offset="5.586592e-03" style="stop-color:#D9B3B0"/>
		<stop  offset="0.2279" style="stop-color:#DCB8AE"/>
		<stop  offset="0.5721" style="stop-color:#E7C7A6"/>
		<stop  offset="0.9933" style="stop-color:#FAE095"/>
		<stop  offset="1" style="stop-color:#FAE195"/>
	</linearGradient>
	<path class="st4" d="M33.54,433.48c0.01-0.11,0.01-0.22,0.02-0.33c0.15,0.11,0.31,0.22,0.45,0.33
		C33.86,433.48,33.71,433.48,33.54,433.48z"/>
	<linearGradient id="SVGID_6_" gradientUnits="userSpaceOnUse" x1="-72.2076" y1="300.4691" x2="372.1752" y2="164.488">
		<stop  offset="5.586592e-03" style="stop-color:#D9B3B0"/>
		<stop  offset="0.2279" style="stop-color:#DCB8AE"/>
		<stop  offset="0.5721" style="stop-color:#E7C7A6"/>
		<stop  offset="0.9933" style="stop-color:#FAE095"/>
		<stop  offset="1" style="stop-color:#FAE195"/>
	</linearGradient>
	<path class="st5" d="M383.44,100.17c0.07,1.11,0.18,2.22,0.18,3.32c0.01,45.59,0.01,91.18,0.02,136.78c0,1.19-0.21,2.38,0.25,3.55
		c-0.16,0.23-0.32,0.46-0.48,0.69c-19.24,14.4-38.47,28.81-57.71,43.22c-24.52,18.37-49.04,36.74-73.52,55.17
		c-1.58,1.19-2.56,1.35-4.25,0.08c-43.12-32.43-86.3-64.79-129.46-97.15c-0.57-0.43-1.18-0.81-1.77-1.21l0.01-0.1
		c-0.01-47.27-0.02-94.56-0.01-141.83c0-0.77-0.19-1.61,0.47-2.25c43.48,32.6,86.98,65.19,130.42,97.84
		c1.82,1.37,2.92,1.45,4.81,0.04c43.24-32.53,86.54-64.97,129.83-97.43C382.59,100.59,383.03,100.4,383.44,100.17z"/>
	<linearGradient id="SVGID_7_" gradientUnits="userSpaceOnUse" x1="-91.9474" y1="235.9602" x2="352.4355" y2="99.9791">
		<stop  offset="5.586592e-03" style="stop-color:#D9B3B0"/>
		<stop  offset="0.2279" style="stop-color:#DCB8AE"/>
		<stop  offset="0.5721" style="stop-color:#E7C7A6"/>
		<stop  offset="0.9933" style="stop-color:#FAE095"/>
		<stop  offset="1" style="stop-color:#FAE195"/>
	</linearGradient>
	<path class="st6" d="M117.17,100.41c-0.67,0.64-0.47,1.48-0.47,2.25c0,47.27,0.01,94.56,0.01,141.83
		c-0.33-0.25-0.66-0.52-0.99-0.77c0.82-1.07,0.47-2.31,0.47-3.46c0.02-45.53,0.01-91.05,0.02-136.58c0-1.27,0.03-2.55,0.05-3.82
		C116.57,100.05,116.87,100.24,117.17,100.41z"/>
</g>
</svg>
