<?xml version="1.0" encoding="utf-8"?>
<!-- Generator: Adobe Illustrator 25.2.1, SVG Export Plug-In . SVG Version: 6.00 Build 0)  -->
<svg version="1.1" id="Layer_1" xmlns="http://www.w3.org/2000/svg" xmlns:xlink="http://www.w3.org/1999/xlink" x="0px" y="0px"
	 viewBox="0 0 1280 1024" style="enable-background:new 0 0 1280 1024;" xml:space="preserve">
<style type="text/css">
	.st0{fill:#0C2126;}
	.st1{fill:none;stroke:#73BFBF;stroke-width:0.25;stroke-miterlimit:10;}
</style>
<g>
	<rect x="-26" y="-0.4" class="st0" width="1331" height="1024.4"/>
	<g>
		<rect x="-26" y="-0.4" class="st1" width="1331" height="1024.4"/>
		<line class="st1" x1="-26" y1="1003.91" x2="1305" y2="1003.91"/>
		<line class="st1" x1="-26" y1="983.83" x2="1305" y2="983.83"/>
		<line class="st1" x1="-26" y1="963.74" x2="1305" y2="963.74"/>
		<line class="st1" x1="-26" y1="943.65" x2="1305" y2="943.65"/>
		<line class="st1" x1="-26" y1="923.57" x2="1305" y2="923.57"/>
		<line class="st1" x1="-26" y1="903.48" x2="1305" y2="903.48"/>
		<line class="st1" x1="-26" y1="883.4" x2="1305" y2="883.4"/>
		<line class="st1" x1="-26" y1="863.31" x2="1305" y2="863.31"/>
		<line class="st1" x1="-26" y1="843.22" x2="1305" y2="843.22"/>
		<line class="st1" x1="-26" y1="823.14" x2="1305" y2="823.14"/>
		<line class="st1" x1="-26" y1="803.05" x2="1305" y2="803.05"/>
		<line class="st1" x1="-26" y1="782.96" x2="1305" y2="782.96"/>
		<line class="st1" x1="-26" y1="762.88" x2="1305" y2="762.88"/>
		<line class="st1" x1="-26" y1="742.79" x2="1305" y2="742.79"/>
		<line class="st1" x1="-26" y1="722.7" x2="1305" y2="722.7"/>
		<line class="st1" x1="-26" y1="702.62" x2="1305" y2="702.62"/>
		<line class="st1" x1="-26" y1="682.53" x2="1305" y2="682.53"/>
		<line class="st1" x1="-26" y1="662.45" x2="1305" y2="662.45"/>
		<line class="st1" x1="-26" y1="642.36" x2="1305" y2="642.36"/>
		<line class="st1" x1="-26" y1="622.27" x2="1305" y2="622.27"/>
		<line class="st1" x1="-26" y1="602.19" x2="1305" y2="602.19"/>
		<line class="st1" x1="-26" y1="582.1" x2="1305" y2="582.1"/>
		<line class="st1" x1="-26" y1="562.01" x2="1305" y2="562.01"/>
		<line class="st1" x1="-26" y1="541.93" x2="1305" y2="541.93"/>
		<line class="st1" x1="-26" y1="521.84" x2="1305" y2="521.84"/>
		<line class="st1" x1="-26" y1="501.76" x2="1305" y2="501.76"/>
		<line class="st1" x1="-26" y1="481.67" x2="1305" y2="481.67"/>
		<line class="st1" x1="-26" y1="461.58" x2="1305" y2="461.58"/>
		<line class="st1" x1="-26" y1="441.5" x2="1305" y2="441.5"/>
		<line class="st1" x1="-26" y1="421.41" x2="1305" y2="421.41"/>
		<line class="st1" x1="-26" y1="401.32" x2="1305" y2="401.32"/>
		<line class="st1" x1="-26" y1="381.24" x2="1305" y2="381.24"/>
		<line class="st1" x1="-26" y1="361.15" x2="1305" y2="361.15"/>
		<line class="st1" x1="-26" y1="341.06" x2="1305" y2="341.06"/>
		<line class="st1" x1="-26" y1="320.98" x2="1305" y2="320.98"/>
		<line class="st1" x1="-26" y1="300.89" x2="1305" y2="300.89"/>
		<line class="st1" x1="-26" y1="280.81" x2="1305" y2="280.81"/>
		<line class="st1" x1="-26" y1="260.72" x2="1305" y2="260.72"/>
		<line class="st1" x1="-26" y1="240.63" x2="1305" y2="240.63"/>
		<line class="st1" x1="-26" y1="220.55" x2="1305" y2="220.55"/>
		<line class="st1" x1="-26" y1="200.46" x2="1305" y2="200.46"/>
		<line class="st1" x1="-26" y1="180.37" x2="1305" y2="180.37"/>
		<line class="st1" x1="-26" y1="160.29" x2="1305" y2="160.29"/>
		<line class="st1" x1="-26" y1="140.2" x2="1305" y2="140.2"/>
		<line class="st1" x1="-26" y1="120.11" x2="1305" y2="120.11"/>
		<line class="st1" x1="-26" y1="100.03" x2="1305" y2="100.03"/>
		<line class="st1" x1="-26" y1="79.94" x2="1305" y2="79.94"/>
		<line class="st1" x1="-26" y1="59.86" x2="1305" y2="59.86"/>
		<line class="st1" x1="-26" y1="39.77" x2="1305" y2="39.77"/>
		<line class="st1" x1="-26" y1="19.68" x2="1305" y2="19.68"/>
		<line class="st1" x1="1278.9" y1="-0.4" x2="1278.9" y2="1024"/>
		<line class="st1" x1="1252.8" y1="-0.4" x2="1252.8" y2="1024"/>
		<line class="st1" x1="1226.71" y1="-0.4" x2="1226.71" y2="1024"/>
		<line class="st1" x1="1200.61" y1="-0.4" x2="1200.61" y2="1024"/>
		<line class="st1" x1="1174.51" y1="-0.4" x2="1174.51" y2="1024"/>
		<line class="st1" x1="1148.41" y1="-0.4" x2="1148.41" y2="1024"/>
		<line class="st1" x1="1122.31" y1="-0.4" x2="1122.31" y2="1024"/>
		<line class="st1" x1="1096.22" y1="-0.4" x2="1096.22" y2="1024"/>
		<line class="st1" x1="1070.12" y1="-0.4" x2="1070.12" y2="1024"/>
		<line class="st1" x1="1044.02" y1="-0.4" x2="1044.02" y2="1024"/>
		<line class="st1" x1="1017.92" y1="-0.4" x2="1017.92" y2="1024"/>
		<line class="st1" x1="991.82" y1="-0.4" x2="991.82" y2="1024"/>
		<line class="st1" x1="965.73" y1="-0.4" x2="965.73" y2="1024"/>
		<line class="st1" x1="939.63" y1="-0.4" x2="939.63" y2="1024"/>
		<line class="st1" x1="913.53" y1="-0.4" x2="913.53" y2="1024"/>
		<line class="st1" x1="887.43" y1="-0.4" x2="887.43" y2="1024"/>
		<line class="st1" x1="861.33" y1="-0.4" x2="861.33" y2="1024"/>
		<line class="st1" x1="835.24" y1="-0.4" x2="835.24" y2="1024"/>
		<line class="st1" x1="809.14" y1="-0.4" x2="809.14" y2="1024"/>
		<line class="st1" x1="783.04" y1="-0.4" x2="783.04" y2="1024"/>
		<line class="st1" x1="756.94" y1="-0.4" x2="756.94" y2="1024"/>
		<line class="st1" x1="730.84" y1="-0.4" x2="730.84" y2="1024"/>
		<line class="st1" x1="704.75" y1="-0.4" x2="704.75" y2="1024"/>
		<line class="st1" x1="678.65" y1="-0.4" x2="678.65" y2="1024"/>
		<line class="st1" x1="652.55" y1="-0.4" x2="652.55" y2="1024"/>
		<line class="st1" x1="626.45" y1="-0.4" x2="626.45" y2="1024"/>
		<line class="st1" x1="600.35" y1="-0.4" x2="600.35" y2="1024"/>
		<line class="st1" x1="574.25" y1="-0.4" x2="574.25" y2="1024"/>
		<line class="st1" x1="548.16" y1="-0.4" x2="548.16" y2="1024"/>
		<line class="st1" x1="522.06" y1="-0.4" x2="522.06" y2="1024"/>
		<line class="st1" x1="495.96" y1="-0.4" x2="495.96" y2="1024"/>
		<line class="st1" x1="469.86" y1="-0.4" x2="469.86" y2="1024"/>
		<line class="st1" x1="443.76" y1="-0.4" x2="443.76" y2="1024"/>
		<line class="st1" x1="417.67" y1="-0.4" x2="417.67" y2="1024"/>
		<line class="st1" x1="391.57" y1="-0.4" x2="391.57" y2="1024"/>
		<line class="st1" x1="365.47" y1="-0.4" x2="365.47" y2="1024"/>
		<line class="st1" x1="339.37" y1="-0.4" x2="339.37" y2="1024"/>
		<line class="st1" x1="313.27" y1="-0.4" x2="313.27" y2="1024"/>
		<line class="st1" x1="287.18" y1="-0.4" x2="287.18" y2="1024"/>
		<line class="st1" x1="261.08" y1="-0.4" x2="261.08" y2="1024"/>
		<line class="st1" x1="234.98" y1="-0.4" x2="234.98" y2="1024"/>
		<line class="st1" x1="208.88" y1="-0.4" x2="208.88" y2="1024"/>
		<line class="st1" x1="182.78" y1="-0.4" x2="182.78" y2="1024"/>
		<line class="st1" x1="156.69" y1="-0.4" x2="156.69" y2="1024"/>
		<line class="st1" x1="130.59" y1="-0.4" x2="130.59" y2="1024"/>
		<line class="st1" x1="104.49" y1="-0.4" x2="104.49" y2="1024"/>
		<line class="st1" x1="78.39" y1="-0.4" x2="78.39" y2="1024"/>
		<line class="st1" x1="52.29" y1="-0.4" x2="52.29" y2="1024"/>
		<line class="st1" x1="26.2" y1="-0.4" x2="26.2" y2="1024"/>
		<line class="st1" x1="0.1" y1="-0.4" x2="0.1" y2="1024"/>
	</g>
</g>
</svg>
