<?xml version="1.0" encoding="utf-8"?>
<!-- Generator: Adobe Illustrator 25.2.1, SVG Export Plug-In . SVG Version: 6.00 Build 0)  -->
<svg version="1.1" id="Layer_1" xmlns="http://www.w3.org/2000/svg" xmlns:xlink="http://www.w3.org/1999/xlink" x="0px" y="0px"
	 viewBox="0 0 500 900" style="enable-background:new 0 0 500 900;" xml:space="preserve">
<style type="text/css">
	.st0{fill:url(#SVGID_1_);}
</style>
<linearGradient id="SVGID_1_" gradientUnits="userSpaceOnUse" x1="-12.0776" y1="408.2894" x2="475.4481" y2="462.9281">
	<stop  offset="5.586592e-03" style="stop-color:#D9B3B0"/>
	<stop  offset="0.2279" style="stop-color:#DCB8AE"/>
	<stop  offset="0.5721" style="stop-color:#E7C7A6"/>
	<stop  offset="0.9933" style="stop-color:#FAE095"/>
	<stop  offset="1" style="stop-color:#FAE195"/>
</linearGradient>
<rect class="st0" width="467.75" height="871.71"/>
<g>
	<g>
		<path d="M495.16,689.87c-6.28-31.91-13.77-69.99-41.29-108.18c-12.98-18-40.34-55.98-90.84-71.84
			c-62.93-19.77-117.38,8.75-151.12,26.43c-37.22,19.5-44.95,35.54-47.07,40.46c-13.45,31.18,3.8,66.05,12.39,83.41
			c11.8,23.84,26.08,38.07,46.24,57.81c0.8,0.78,1.57,1.53,2.33,2.26c-2.92,3.47-6.01,7.2-9.37,11.26c-2.28,2.75-4.7,5.7-7.21,8.85
			c-5.63-0.16-10.79,3.11-11.45,3.54c-1.06,0.69-11.15,7.5-8.98,17.03c0.43,1.87,1.28,3.55,2.4,5.01
			c-3.57,5.86-7.12,12.29-10.52,19.4c-2.33-0.26-5.23,0.49-7.06,0.98c-3.07,0.81-5.89,1.56-7.74,4.34
			c-1.71,2.56-1.99,5.91-0.93,8.67c1.23,3.2,4.25,5.53,7.29,6.31c-1.16,3.28-2.15,6.39-3,9.34c-4.4-3.45-10.15-6.45-17.1-10.25
			c-5.52-19.14-6.57-49.46-5.42-62.39c7.5,0.24,14.59,0.94,20.94,2.06c3.83,0.67,7.47-2.17,7.48-6.06c0-0.03,0-0.05,0-0.08
			c0-16.46-17.25-22.06-29.3-34.78c-2.48-2.62-6.6-2.58-9.14-0.03c-11,11.04-29.25,18.69-29.25,34.81c0,0.03,0,0.05,0,0.08
			c0.01,3.89,3.65,6.73,7.48,6.06c6.87-1.21,14.63-1.93,22.83-2.1c0.15,9.03,0.59,25.17,1.83,36.91
			c-3.11-10.41-10.81-18.58-25.46-27.24c-1.49-0.88-3.35-0.85-4.79,0.11c-20.77,14.01-27.33,22.68-27.33,39.87c0,0.02,0,0.04,0,0.06
			c0.01,2.79,2.66,4.79,5.39,4.22c5.39-1.12,11.13-1.87,17.08-2.21c0.73,2.8,1.32,4.79,1.32,4.79s3.64,12.36,9.31,26.24
			c-3.51,7.16-4.34,13.75-2.5,20.63c0.6,2.24,1.53,4.32,2.74,6.23c0.98,1.56,2.89,2.22,4.62,1.57c2.61-0.99,5.35-1.9,8.07-2.83
			c2.3,3.45,4.7,6.42,7.15,8.6c15.74,14.01,26.16,26.4,27.96,33.71c0.11,0.46,0.27,0.87,0.47,1.23c0.52,0.18,1.05,0.36,1.6,0.49
			c3.28,0.78,6.72,0.64,10.07,0.06c0.01,0.01,0.02,0.01,0.02,0.02c0.15-0.03,0.29-0.06,0.44-0.09c0.06-0.01,0.13-0.02,0.19-0.03
			c0.02-0.01,0.03-0.01,0.05-0.02c0.43-0.08,0.85-0.17,1.27-0.27c0,0,0.01,0.01,0.01,0.01c0,0,0,0,0,0
			c0.11-0.03,0.22-0.06,0.33-0.09c1.07-0.25,2.13-0.53,3.17-0.84c3.21-0.98,6.36-2.31,9.31-3.97c4.54,1.81,10.19,3.68,17.29,5.54
			c0,0,43.14,11.3,75.97,0c4.01-1.38,8.93-3.52,11.56-8.26c1.95-3.51,2.17-7.6,0-19.82c-1.77-9.98-3.64-16.96-4.13-18.99
			c-0.74-3.07-1.85-9.84,7.43-39.64c3.05-9.79,5.52-17.7,7.88-24.37c22.17,18.77,28.97,26.21,48.7,39.75
			c27.53,18.89,43.11,21.42,62.6,19.86c23.42-1.88,38.61-11.84,49.71-23.98c26.28-28.76,30.8-61.97,32.21-73.5
			C499.89,741.11,501.78,723.51,495.16,689.87z M155.15,843.03c1.61,5.56,3.34,11.15,5.2,16.57c-3.06-5.59-5.74-11.1-7.95-15.97
			C153.32,843.41,154.23,843.23,155.15,843.03z M118.06,799.09c0.18-1.94,0.23-3.62,0.19-5.14c6.16,0.32,12.08,1.09,17.64,2.25
			c2.73,0.57,5.38-1.44,5.39-4.22c0-0.02,0-0.04,0-0.06c0-0.84-0.03-1.66-0.07-2.47c0.17,0.67,0.35,1.28,0.55,1.79
			c0.66,1.76,1.58,5.3,2.73,10.04c-5.64-1.28-11.69,0.44-15.73,4.89c-3.32,3.66-6.13,7.09-8.49,10.36
			C118.42,810.45,117.55,804.5,118.06,799.09z M145.26,855.82c-2.63-2.52-5.18-5.3-7.6-8.23c1.52-0.45,3.02-0.92,4.57-1.35
			c1.46,3.58,3.23,7.61,5.33,11.85C146.79,857.32,146.02,856.55,145.26,855.82z"/>
	</g>
	<path d="M147.94,630.6c-3.49-12.61-5.42-26.71-3.29-41.11c-0.62-0.43-1.21-0.86-1.84-1.3c-8.26-5.79-13.98-12.6-17.87-19.9
		c19.47-45.53,79.26-112.29,79.26-112.29c3.76-12.05,21.3-24.1,35.09-26.63c10.26-1.89,21.93,1.9,36.34,1.27
		c14.41-0.63,12.53,7.61,16.29,15.22c3.76,7.61-3.76,20.93-5.01,26.63c-1.25,5.71-8.77,12.68-23.81,15.22
		c-15.04,2.54-10.02-3.17-17.54-10.15c-7.52-6.98,1.88-10.78,3.76-17.75c1.88-6.98,13.78-1.27,13.78-1.27s-7.52-6.98-11.28-8.88
		c-3.76-1.9-12.53-3.8-18.8,16.49c-5.77,18.69,7.59,26.62,16.59,34.69c13.96-5.33,29.39-9.85,46.01-12.17
		c0.44-0.32,0.87-0.63,1.31-0.96c20.68-15.22,7.52-30.44,10.02-50.75c2.51-20.31-31.33-30.42-52.63-31.69
		c-3.24-0.19-6.53-0.5-9.87-0.75c15.95-2.83,52.78-11.22,39.4-26.73c-16.92-19.59-16.29-30.51-14.41-42.84
		c1.88-12.33,31.95-11.76,31.95-11.76s-30.07-17.12-46.36,0c-16.29,17.12,4.39,34.88,0,54.6c-3.35,15.06-11.8,23.34-15.62,26.42
		c-17.14-0.73-35.33,2.41-53.71,32.75c-23.81,39.31-15.33,34.26-66.71,81.75c-0.24,0.22-0.47,0.45-0.71,0.67
		c0.58-5.44,1.35-10.5,1.97-14.9c3.13-22.19,36.34-31.07,54.83-59.49c18.49-28.42-9.72-78.74-9.72-78.74s7.52,35.23-8.77,62.14
		c-14.2,23.46-36.34,22.83-62.65,64.68c-13.92,22.14-11.18,44.1-3.57,63.34c-0.82,1.68-1.6,3.36-2.32,5.04
		c-38.67-60.25-36.96-119.2,48.02-201.61c1.64-1.59,3.23-3.23,4.79-4.89c6.21,2.5,21.99,6.97,42.24-1.32
		c26.31-10.78,25.06-38.05,25.06-38.05s-12.53,17.12-22.55,10.15c-6.63-4.61-16.53-3.13-22.49-1.59
		c13.76-25.41,19.97-54.67,16.87-84.07c-3.68-34.85-19.38-64.41-48.63-72.09c-41.69-13.67-97.51,58.78-47.62,70.24
		c-28.83-44.18,59.2-84.94,71.73-0.03c-11.78-1.78-28.34,14.67-42.91,22.01c-20.05,9.51-32.58,8.88-32.58,8.88
		c22.29,16.36,61.83,12.24,76.84-15.56c0.15,4.13,0.17,8.47,0,13.07c-1.02,28.59-14.47,55.29-36.65,73.02
		c-29.37,23.48-69.02,56.73-77.78,109.12c-12.75,69.05,7.49,114.21,36.16,149.64c-2.32,20.17-0.75,38.56-2.14,52.92
		c-2.51,25.86,7.81,70.79,12.05,96.07c1.21-0.98,2.45-1.96,3.76-2.94c-0.53-1.84-0.83-3.75-0.86-5.7l-0.01-0.51
		c0-19.45,14.42-30.57,24.95-38.69c1.06-0.82,2.09-1.62,3.1-2.41c-3.5-15.44-4.16-36.32-3.4-59.44c0.93,0.88,1.84,1.74,2.76,2.61
		l-0.02-0.56l0.19,0.72c4.12,3.9,8.22,7.75,12.2,11.56c-5.83,1.6-8.75,1.92-0.16,5.81c2.39,1.08,5,1.53,7.71,1.5
		c15.49,15.26,28.83,30.4,36.35,47.51c6.47,5.57,12.83,12.67,15.22,22.73c2.27-1.34,5.93-3.19,10.45-4.33
		c1.11-1.36,2.2-2.67,3.24-3.93c-15.91-15.82-29.81-31.13-41.14-54.03c-4-8.08-9.82-19.86-13.97-33.63L147.94,630.6z"/>
</g>
</svg>
