<?xml version="1.0" encoding="utf-8"?>
<!-- Generator: Adobe Illustrator 25.2.1, SVG Export Plug-In . SVG Version: 6.00 Build 0)  -->
<svg version="1.1" id="Layer_1" xmlns="http://www.w3.org/2000/svg" xmlns:xlink="http://www.w3.org/1999/xlink" x="0px" y="0px"
	 viewBox="0 0 1000 150" style="enable-background:new 0 0 1000 150;" xml:space="preserve">
<style type="text/css">
	.st0{opacity:0.8;}
	.st1{fill:none;stroke:#76C0BF;stroke-width:5;stroke-miterlimit:10;}
	.st2{fill:none;stroke:#4E8180;stroke-width:5;stroke-miterlimit:10;}
</style>
<g class="st0">
	<line class="st1" x1="0" y1="146.33" x2="1000" y2="146.33"/>
	<polyline class="st2" points="51.02,58.37 127.04,103.93 208.61,114.89 303.67,39.45 412.77,124.76 500,96.02 567.06,79.51 
		653.6,86.53 695.86,3.67 738.81,117.85 824.65,103.93 838.29,57.1 1000,77.17 	"/>
	<polyline class="st1" points="19.7,118.67 105.57,86.53 143.13,60.41 194.12,68.2 303.67,118.67 393.03,77.85 500.62,132.3 
		601.94,117.63 694.03,122.21 743.94,26.74 768.29,132.2 848.25,128.97 876.42,99.95 1000,111.08 	"/>
</g>
</svg>
