<?xml version="1.0" encoding="utf-8"?>
<!-- Generator: Adobe Illustrator 25.2.1, SVG Export Plug-In . SVG Version: 6.00 Build 0)  -->
<svg version="1.1" id="Layer_1" xmlns="http://www.w3.org/2000/svg" xmlns:xlink="http://www.w3.org/1999/xlink" x="0px" y="0px"
	 viewBox="0 0 250 125" style="enable-background:new 0 0 250 125;" xml:space="preserve">
<style type="text/css">
	.st0{fill:none;stroke:#74BFBF;stroke-width:5;stroke-miterlimit:10;}
	.st1{fill:none;stroke:#4E807F;stroke-width:5;stroke-miterlimit:10;}
</style>
<g>
	<line class="st0" x1="2.13" y1="31.19" x2="2.13" y2="116.77"/>
	<line class="st0" x1="2.13" y1="116.77" x2="247.87" y2="116.77"/>
	<polyline class="st1" points="14.67,53.83 33.35,86.44 53.4,94.28 76.76,40.29 103.56,101.34 125,80.78 141.48,68.97 162.75,73.98 
		173.13,14.69 183.68,96.4 204.78,86.44 208.13,52.93 247.87,67.28 	"/>
	<polyline class="st0" points="6.97,96.99 28.07,73.98 37.3,55.3 49.83,60.87 76.76,96.99 98.71,67.77 125.15,106.74 150.05,96.24 
		172.68,99.52 184.95,31.19 190.93,106.67 210.58,104.35 217.5,83.59 247.87,91.55 	"/>
</g>
</svg>
