<?xml version="1.0" encoding="utf-8"?>
<!-- Generator: Adobe Illustrator 25.2.1, SVG Export Plug-In . SVG Version: 6.00 Build 0)  -->
<svg version="1.1" id="Layer_1" xmlns="http://www.w3.org/2000/svg" xmlns:xlink="http://www.w3.org/1999/xlink" x="0px" y="0px"
	 viewBox="0 0 500 500" style="enable-background:new 0 0 500 500;" xml:space="preserve">
<style type="text/css">
	.st0{opacity:0.8;}
	.st1{fill:none;stroke:#74BFBF;stroke-width:5;stroke-miterlimit:10;}
	.st2{fill:none;stroke:#4E807F;stroke-width:5;stroke-miterlimit:10;}
</style>
<g class="st0">
	<line class="st1" x1="15.5" y1="343.06" x2="484.5" y2="343.06"/>
	<polyline class="st2" points="39.43,228.3 75.08,287.74 113.34,302.04 157.92,203.62 209.09,314.92 250,277.43 281.45,255.89 
		322.04,265.04 341.86,156.94 362,305.91 402.26,287.74 408.66,226.65 484.5,252.83 	"/>
	<polyline class="st1" points="24.74,306.98 65.01,265.04 82.63,230.97 106.54,241.13 157.92,306.98 199.83,253.72 250.29,324.76 
		297.81,305.62 341,311.6 364.41,187.03 375.83,324.63 413.33,320.41 426.54,282.55 484.5,297.08 	"/>
</g>
</svg>
