<?xml version="1.0" encoding="utf-8"?>
<!-- Generator: Adobe Illustrator 25.2.1, SVG Export Plug-In . SVG Version: 6.00 Build 0)  -->
<svg version="1.1" id="Layer_1" xmlns="http://www.w3.org/2000/svg" xmlns:xlink="http://www.w3.org/1999/xlink" x="0px" y="0px"
	 viewBox="0 0 500 500" style="enable-background:new 0 0 500 500;" xml:space="preserve">
<style type="text/css">
	.st0{fill:#FFFFFF;}
</style>
<path class="st0" d="M36.18,46.42c0.5,0,1,0,1.51,0c1.44,1.1,3.13,0.74,4.73,0.74c113.8,0.02,227.61,0.02,341.41,0
	c1.58,0,3.29,0.45,4.71-0.73c0.25,0,0.5,0,0.75,0c0.26,0.23,0.48,0.6,0.78,0.67c15.86,3.84,24.19,14.4,24.19,30.71
	c0,113.63-0.14,227.26,0.16,340.89c0.04,15.74-11.88,31.2-31.36,31.1c-51.56-0.27-103.13-0.09-154.69-0.09
	c-62.35,0-124.71,0.01-187.06-0.01c-16.88,0-30.07-12.66-30.07-29.1c-0.04-115.01-0.03-230.02,0-345.03
	c0-13.17,8.84-24.39,21.6-27.97C33.94,47.29,35.4,47.75,36.18,46.42z M226.46,223.97c-0.31-0.1-0.62-0.2-0.93-0.3
	c0-7.63-0.07-15.27,0.04-22.9c0.03-2.27-0.67-3.01-2.99-3c-17.06,0.09-34.13,0.11-51.19-0.02c-2.61-0.02-3.13,0.92-3.12,3.25
	c0.04,61.83,0.05,123.66-0.02,185.5c0,2.73,0.92,3.31,3.45,3.29c17.44-0.1,34.88-0.15,52.32,0.03c3.4,0.04,4.11-0.95,4.1-4.2
	c-0.13-31.61-0.06-63.21-0.09-94.82c-0.01-6.17,0.5-12.29,1.84-18.29c4.34-19.39,17.22-28.68,37.21-27.01
	c13.36,1.12,21.39,7.71,25.1,20.55c2.29,7.91,2.8,16.05,2.83,24.19c0.1,31.86,0.08,63.71-0.03,95.57c-0.01,3.02,0.59,4.04,3.85,4.01
	c17.19-0.17,34.38-0.16,51.56-0.01c3.19,0.03,4.24-0.62,4.23-4.07c-0.1-33.49,0.05-66.97,0.01-100.46
	c-0.02-15.06-0.76-30.06-4.47-44.76c-5.51-21.84-17.68-37.64-40.1-44.1c-9.11-2.62-18.45-3.31-27.9-3.42
	c-17.41-0.19-32.37,5.69-45.03,17.56C232.94,214.5,229.56,219.12,226.46,223.97z M130.67,293.65c0-30.6-0.01-61.2,0.02-91.81
	c0-2.43,0.14-4.16-3.41-4.12c-17.69,0.21-35.38,0.15-53.07,0.04c-2.7-0.02-3.33,0.86-3.33,3.43c0.06,61.71,0.07,123.41-0.02,185.12
	c0,2.93,0.92,3.51,3.64,3.5c17.44-0.11,34.88-0.14,52.32,0.01c3.15,0.03,3.94-0.88,3.92-3.99
	C130.62,355.1,130.67,324.38,130.67,293.65z M100.91,171.36c19.08-0.03,34.56-15.63,34.53-34.78
	c-0.03-18.83-15.65-34.34-34.57-34.34c-19.03,0-34.66,15.7-34.57,34.76C66.38,155.81,82.07,171.39,100.91,171.36z"/>
<path class="st0" d="M388.53,46.42c-1.42,1.18-3.12,0.73-4.71,0.73c-113.8,0.02-227.61,0.02-341.41,0c-1.6,0-3.29,0.36-4.73-0.74
	C154.63,46.42,271.58,46.42,388.53,46.42z"/>
<path class="st0" d="M432.83,424.75c0.05-15.44,12.27-27.52,27.79-27.48c15.18,0.04,27.38,12.31,27.41,27.55
	c0.03,15.4-12.22,27.64-27.67,27.64C444.9,452.47,432.78,440.26,432.83,424.75z M460.17,449.17c13.4,0.09,24.57-10.93,24.61-24.25
	c0.03-13.13-10.93-24.18-24.15-24.37c-13.29-0.19-24.51,10.92-24.54,24.28C436.07,438.07,446.97,449.09,460.17,449.17z"/>
<path class="st0" d="M472.43,439.18c-2.89,0.94-4.69,0.53-6.03-1.92c-1.57-2.85-3.59-5.45-5.15-8.3c-1.24-2.25-3.12-2.34-5.13-2
	c-2.36,0.4-1.15,2.4-1.26,3.66c-0.21,2.24-0.12,4.51-0.04,6.77c0.05,1.51-0.31,2.32-2.05,2.3c-1.78-0.01-2.4-0.65-2.38-2.44
	c0.07-8.28,0.07-16.56,0.01-24.84c-0.01-1.81,0.69-2.42,2.44-2.37c3.26,0.09,6.53-0.07,9.79,0.05c5.87,0.22,9.01,2.64,9.48,7.13
	c0.53,5.1-1.58,7.83-7.67,9.64C467.04,430.9,469.62,434.86,472.43,439.18z M459.41,413.7c-1.14,0.58-3.83-1.02-4.33,0.7
	c-0.74,2.53-0.7,5.59,0.02,8.14c0.51,1.81,3.12,0.74,4.75,0.77c5.58,0.09,7.71-1.34,7.74-4.85
	C467.62,414.86,465.76,413.71,459.41,413.7z"/>
</svg>
