<?xml version="1.0" encoding="utf-8"?>
<!-- Generator: Adobe Illustrator 25.2.1, SVG Export Plug-In . SVG Version: 6.00 Build 0)  -->
<svg version="1.1" id="Layer_1" xmlns="http://www.w3.org/2000/svg" xmlns:xlink="http://www.w3.org/1999/xlink" x="0px" y="0px"
	 viewBox="0 0 500 500" style="enable-background:new 0 0 500 500;" xml:space="preserve">
<style type="text/css">
	.st0{fill:#80807B;}
</style>
<g>
	<path class="st0" d="M48.56,19.99c0.57,0,1.14,0,1.72,0c1.64,1.25,3.57,0.84,5.39,0.84c129.78,0.02,259.58,0.02,389.36,0
		c1.8,0,3.75,0.51,5.37-0.83c0.29,0,0.57,0,0.86,0c0.3,0.26,0.55,0.68,0.89,0.76c18.09,4.38,27.59,16.42,27.59,35.02
		c0,129.59-0.16,259.18,0.18,388.76c0.05,17.95-13.55,35.58-35.76,35.47c-58.8-0.31-117.61-0.1-176.41-0.1
		c-71.11,0-142.22,0.01-213.33-0.01c-19.25,0-34.29-14.44-34.29-33.19c-0.05-131.16-0.03-262.32,0-393.49
		c0-15.02,10.08-27.82,24.63-31.9C46,20.98,47.67,21.51,48.56,19.99z M265.56,222.48c-0.35-0.11-0.71-0.23-1.06-0.34
		c0-8.7-0.08-17.41,0.05-26.12c0.03-2.59-0.76-3.43-3.41-3.42c-19.46,0.1-38.92,0.13-58.38-0.02c-2.98-0.02-3.57,1.05-3.56,3.71
		c0.05,70.51,0.06,141.03-0.02,211.55c0,3.11,1.05,3.77,3.93,3.75c19.89-0.11,39.78-0.17,59.67,0.03c3.88,0.05,4.69-1.08,4.68-4.79
		c-0.15-36.05-0.07-72.09-0.1-108.14c-0.01-7.04,0.57-14.02,2.1-20.86c4.95-22.11,19.64-32.71,42.44-30.8
		c15.24,1.28,24.39,8.79,28.62,23.44c2.61,9.02,3.19,18.3,3.23,27.59c0.11,36.33,0.09,72.66-0.03,108.99
		c-0.01,3.44,0.67,4.61,4.39,4.57c19.6-0.19,39.21-0.18,58.8-0.01c3.64,0.03,4.84-0.71,4.82-4.64
		c-0.11-38.19,0.06-76.38,0.01-114.57c-0.02-17.18-0.87-34.28-5.1-51.05c-6.28-24.91-20.16-42.93-45.73-50.29
		c-10.39-2.99-21.04-3.77-31.82-3.9c-19.86-0.22-36.92,6.49-51.35,20.03C272.95,211.68,269.09,216.94,265.56,222.48z M156.32,301.94
		c0-34.9-0.01-69.79,0.02-104.7c0-2.77,0.16-4.74-3.89-4.7c-20.17,0.24-40.35,0.17-60.52,0.05c-3.08-0.02-3.8,0.98-3.8,3.91
		c0.07,70.38,0.08,140.74-0.02,211.12c0,3.34,1.05,4,4.15,3.99c19.89-0.13,39.78-0.16,59.67,0.01c3.59,0.03,4.49-1,4.47-4.55
		C156.26,372.02,156.32,336.99,156.32,301.94z M122.38,162.48c21.76-0.03,39.41-17.83,39.38-39.66
		c-0.03-21.47-17.85-39.16-39.42-39.16c-21.7,0-39.53,17.9-39.42,39.64C83,144.74,100.89,162.51,122.38,162.48z"/>
	<path class="st0" d="M450.39,19.99c-1.62,1.35-3.56,0.83-5.37,0.83c-129.78,0.02-259.58,0.02-389.36,0c-1.82,0-3.75,0.41-5.39-0.84
		C183.64,19.99,317.02,19.99,450.39,19.99z"/>
</g>
</svg>
