<?xml version="1.0" encoding="utf-8"?>
<!-- Generator: Adobe Illustrator 25.2.1, SVG Export Plug-In . SVG Version: 6.00 Build 0)  -->
<svg version="1.1" id="Layer_1" xmlns="http://www.w3.org/2000/svg" xmlns:xlink="http://www.w3.org/1999/xlink" x="0px" y="0px"
	 viewBox="0 0 500 500" style="enable-background:new 0 0 500 500;" xml:space="preserve">
<style type="text/css">
	.st0{fill:url(#SVGID_1_);}
	.st1{fill:url(#SVGID_2_);}
	.st2{fill:url(#SVGID_3_);}
	.st3{fill:url(#SVGID_4_);}
</style>
<g>
	<linearGradient id="SVGID_1_" gradientUnits="userSpaceOnUse" x1="-38.9605" y1="301.0609" x2="364.0767" y2="216.6276">
		<stop  offset="5.586592e-03" style="stop-color:#D9B3B0"/>
		<stop  offset="0.2279" style="stop-color:#DCB8AE"/>
		<stop  offset="0.5721" style="stop-color:#E7C7A6"/>
		<stop  offset="0.9933" style="stop-color:#FAE095"/>
		<stop  offset="1" style="stop-color:#FAE195"/>
	</linearGradient>
	<path class="st0" d="M32.76,43.37c0.51,0,1.02,0,1.54,0c1.47,1.12,3.19,0.75,4.81,0.75c115.82,0.02,231.66,0.02,347.48,0
		c1.61,0,3.35,0.46,4.79-0.74c0.25,0,0.51,0,0.76,0c0.26,0.23,0.49,0.61,0.79,0.68c16.14,3.91,24.62,14.66,24.62,31.26
		c0,115.65-0.14,231.3,0.16,346.95c0.04,16.02-12.09,31.76-31.92,31.65c-52.48-0.27-104.96-0.09-157.44-0.09
		c-63.46,0-126.93,0.01-190.39-0.01c-17.18,0-30.6-12.89-30.6-29.62c-0.04-117.06-0.03-234.11,0-351.17c0-13.4,9-24.82,21.98-28.47
		C30.48,44.26,31.97,44.73,32.76,43.37z M226.43,224.08c-0.32-0.1-0.63-0.2-0.95-0.31c0-7.77-0.07-15.54,0.04-23.31
		c0.03-2.31-0.68-3.06-3.04-3.05c-17.36,0.09-34.74,0.11-52.1-0.02c-2.66-0.02-3.19,0.94-3.18,3.31
		c0.04,62.93,0.05,125.86-0.02,188.8c0,2.78,0.94,3.37,3.51,3.35c17.75-0.1,35.5-0.15,53.25,0.03c3.46,0.04,4.18-0.97,4.17-4.27
		c-0.13-32.17-0.06-64.33-0.09-96.51c-0.01-6.28,0.51-12.51,1.87-18.62c4.42-19.73,17.53-29.19,37.87-27.49
		c13.6,1.14,21.77,7.85,25.55,20.92c2.33,8.05,2.85,16.34,2.88,24.62c0.1,32.43,0.08,64.84-0.03,97.27
		c-0.01,3.07,0.6,4.11,3.92,4.08c17.5-0.17,34.99-0.16,52.48-0.01c3.25,0.03,4.32-0.63,4.31-4.14c-0.1-34.09,0.05-68.16,0.01-102.25
		c-0.02-15.33-0.77-30.59-4.55-45.56c-5.61-22.23-17.99-38.31-40.81-44.88c-9.27-2.67-18.78-3.37-28.4-3.48
		c-17.72-0.19-32.95,5.79-45.83,17.87C233.02,214.44,229.58,219.15,226.43,224.08z M128.93,295c0-31.14-0.01-62.29,0.02-93.44
		c0-2.47,0.14-4.23-3.47-4.19c-18,0.21-36.01,0.15-54.01,0.04c-2.75-0.02-3.39,0.88-3.39,3.49c0.06,62.81,0.07,125.61-0.02,188.41
		c0,2.98,0.94,3.57,3.7,3.56c17.75-0.11,35.5-0.14,53.25,0.01c3.21,0.03,4.01-0.9,3.99-4.06C128.88,357.54,128.93,326.28,128.93,295
		z M98.64,170.54c19.42-0.03,35.17-15.91,35.14-35.4c-0.03-19.17-15.93-34.95-35.19-34.95c-19.37,0-35.28,15.98-35.19,35.38
		C63.5,154.71,79.47,170.57,98.64,170.54z"/>
	<linearGradient id="SVGID_2_" gradientUnits="userSpaceOnUse" x1="-80.0489" y1="104.9281" x2="322.9883" y2="20.4948">
		<stop  offset="5.586592e-03" style="stop-color:#D9B3B0"/>
		<stop  offset="0.2279" style="stop-color:#DCB8AE"/>
		<stop  offset="0.5721" style="stop-color:#E7C7A6"/>
		<stop  offset="0.9933" style="stop-color:#FAE095"/>
		<stop  offset="1" style="stop-color:#FAE195"/>
	</linearGradient>
	<path class="st1" d="M391.38,43.37c-1.45,1.2-3.18,0.74-4.79,0.74c-115.82,0.02-231.66,0.02-347.48,0c-1.63,0-3.35,0.37-4.81-0.75
		C153.32,43.37,272.35,43.37,391.38,43.37z"/>
	<linearGradient id="SVGID_3_" gradientUnits="userSpaceOnUse" x1="7.7938" y1="524.2396" x2="410.831" y2="439.8062">
		<stop  offset="5.586592e-03" style="stop-color:#D9B3B0"/>
		<stop  offset="0.2279" style="stop-color:#DCB8AE"/>
		<stop  offset="0.5721" style="stop-color:#E7C7A6"/>
		<stop  offset="0.9933" style="stop-color:#FAE095"/>
		<stop  offset="1" style="stop-color:#FAE195"/>
	</linearGradient>
	<path class="st2" d="M436.47,428.43c0.05-15.71,12.49-28.01,28.28-27.97c15.45,0.04,27.87,12.53,27.9,28.04
		c0.03,15.67-12.44,28.13-28.16,28.13C448.75,456.65,436.42,444.22,436.47,428.43z M464.29,453.29
		c13.64,0.09,25.01-11.12,25.05-24.68c0.03-13.36-11.12-24.61-24.58-24.8c-13.53-0.19-24.95,11.11-24.98,24.71
		C439.77,441.99,450.86,453.21,464.29,453.29z"/>
	<linearGradient id="SVGID_4_" gradientUnits="userSpaceOnUse" x1="7.829" y1="524.4077" x2="410.8662" y2="439.9744">
		<stop  offset="5.586592e-03" style="stop-color:#D9B3B0"/>
		<stop  offset="0.2279" style="stop-color:#DCB8AE"/>
		<stop  offset="0.5721" style="stop-color:#E7C7A6"/>
		<stop  offset="0.9933" style="stop-color:#FAE095"/>
		<stop  offset="1" style="stop-color:#FAE195"/>
	</linearGradient>
	<path class="st3" d="M476.77,443.12c-2.94,0.96-4.77,0.54-6.14-1.95c-1.6-2.9-3.65-5.55-5.24-8.45c-1.26-2.29-3.18-2.38-5.22-2.04
		c-2.4,0.41-1.17,2.44-1.28,3.73c-0.21,2.28-0.12,4.59-0.04,6.89c0.05,1.54-0.32,2.36-2.09,2.34c-1.81-0.01-2.44-0.66-2.42-2.48
		c0.07-8.43,0.07-16.85,0.01-25.28c-0.01-1.84,0.7-2.46,2.48-2.41c3.32,0.09,6.65-0.07,9.96,0.05c5.97,0.22,9.17,2.69,9.65,7.26
		c0.54,5.19-1.61,7.97-7.81,9.81C471.29,434.69,473.91,438.72,476.77,443.12z M463.52,417.19c-1.16,0.59-3.9-1.04-4.41,0.71
		c-0.75,2.57-0.71,5.69,0.02,8.28c0.52,1.84,3.18,0.75,4.83,0.78c5.68,0.09,7.85-1.36,7.88-4.94
		C471.88,418.37,469.98,417.2,463.52,417.19z"/>
</g>
</svg>
