<?xml version="1.0" encoding="utf-8"?>
<!-- Generator: Adobe Illustrator 25.2.1, SVG Export Plug-In . SVG Version: 6.00 Build 0)  -->
<svg version="1.1" id="Layer_1" xmlns="http://www.w3.org/2000/svg" xmlns:xlink="http://www.w3.org/1999/xlink" x="0px" y="0px"
	 viewBox="0 0 500 500" style="enable-background:new 0 0 500 500;" xml:space="preserve">
<style type="text/css">
	.st0{fill:#FAE195;}
</style>
<path class="st0" d="M179.31,191.13c0.95-7.7-3.61-14.89-8.09-21.21c-25.82-36.44-56.04-69.77-89.78-99.03
	c-5.43-4.71-11.32-9.95-12.4-17.05c-1.05-6.89,2.78-13.52,6.78-19.23c8.7-12.4,19.76-24.19,34.3-28.42s32.88,1.83,37.9,16.12
	c1.81,5.15,1.76,10.73,2.36,16.15c1.91,17.34,10.42,33.16,18.77,48.47c12.89,23.65,25.77,47.3,38.66,70.95
	c5.57,10.21,13.61,21.9,25.23,21.2c11.16-0.67,18.19-13.29,17.87-24.47c-0.32-11.18-5.61-21.51-8.9-32.2
	c-3.29-10.69-4.21-23.45,3.01-31.99c9.78-11.57,29.92-8.27,39.92,3.11c10,11.38,12.13,27.61,12.08,42.77
	c-0.02,7.44-0.54,15.17-4.11,21.71c-6.17,11.31-20.31,16.97-25.2,28.89c-4.31,10.49,1.05,23.93,11.39,28.59
	c8.22,3.7,17.75,2.09,26.58,0.25c24.81-5.18,50.24-11.68,75.19-7.18s49.41,23.81,50.24,49.15c0.73,22.37-16.69,41.46-35.91,52.94
	c-19.21,11.48-43.51,17.96-63.94,8.84c-24.48-10.93-35.09-39.62-54.78-57.82c-2.7-2.49-5.71-4.86-9.3-5.68
	c-9.45-2.15-18.08,8.19-17.71,17.87c0.37,9.69,6.8,18.02,13.58,24.96c6.19,6.34,13.48,13.48,12.76,22.32
	c-0.37,4.47-2.86,8.55-6.03,11.73c-8.29,8.32-21.72,11.01-32.57,6.52s-18.45-15.89-18.44-27.63c0.01-6.36,2.05-12.76,0.82-19.01
	s-7.98-12.15-13.61-9.18c-3.1,1.64-4.52,5.24-5.61,8.57c-6.08,18.51-9.69,37.73-13.28,56.88c-6.86,36.57-13.72,73.14-20.58,109.71
	c-1.45,7.75-2.97,15.68-7.01,22.45c-4.77,7.99-13.45,13.97-22.76,13.96c-9.31-0.01-18.59-6.95-19.82-16.17
	c-1.9-14.19,13.01-23.92,23.11-34.07c16.58-16.66,22.39-40.91,27.5-63.85c4.12-18.47,8.23-36.94,12.35-55.41
	c3.91-17.55,7.83-35.14,10.13-52.98c-8.21-3.94-16.41,4.95-21.77,12.3c-12.88,17.66-29.3,32.74-47.98,44.08
	c-3.11,1.89-6.53,3.73-10.15,3.44c-2.2-0.18-4.27-1.15-6.11-2.36c-11.68-7.73-13.73-25.54-6.36-37.45s21.88-18.04,35.88-18.37
	c9.15-0.21,19.1,1.54,26.85-3.34c6.88-4.34,9.9-12.66,12.46-20.38c1.3-3.92,2.44-8.72-0.33-11.78c-2.18-2.42-5.85-2.61-9.11-2.62
	c-9.29-0.04-18.59-0.08-27.88-0.12c-4.28-0.02-9.25-0.38-11.7-3.89c-2.52-3.62-0.96-8.59,1-12.54
	c6.64-13.39,17.11-24.86,29.85-32.69c4.45,2.35,3.48,8.79,3.82,13.82c0.2,2.92,2.51,6.02,5.24,7.1c2.69,1.06,3.9-0.15,5.61-2.1
	C173.43,201.09,178.49,197.82,179.31,191.13z"/>
</svg>
