<?xml version="1.0" encoding="utf-8"?>
<!-- Generator: Adobe Illustrator 25.1.0, SVG Export Plug-In . SVG Version: 6.00 Build 0)  -->
<svg version="1.1" id="Layer_1" xmlns="http://www.w3.org/2000/svg" xmlns:xlink="http://www.w3.org/1999/xlink" x="0px" y="0px"
	 viewBox="0 0 500 250" style="enable-background:new 0 0 500 250;" xml:space="preserve">
<style type="text/css">
	.st0{fill:#DDB7AC;}
	.st1{font-family:'AgencyFB-Bold';}
	.st2{font-size:75.7364px;}
</style>
<path class="st0" d="M110.98,95.95c0.47-3.8-1.78-7.35-3.99-10.47c-12.74-17.98-27.65-34.42-44.3-48.86
	c-2.68-2.32-5.59-4.91-6.12-8.41c-0.52-3.4,1.37-6.67,3.35-9.49c4.29-6.12,9.75-11.94,16.93-14.03c7.17-2.09,16.23,0.9,18.7,7.95
	c0.89,2.54,0.87,5.29,1.16,7.97c0.94,8.56,5.14,16.36,9.26,23.92c6.36,11.67,12.72,23.34,19.08,35.01
	c2.75,5.04,6.72,10.8,12.45,10.46c5.51-0.33,8.98-6.56,8.82-12.07c-0.16-5.52-2.77-10.61-4.39-15.89
	c-1.62-5.27-2.08-11.57,1.49-15.78c4.83-5.71,14.76-4.08,19.7,1.53s5.98,13.63,5.96,21.1c-0.01,3.67-0.27,7.49-2.03,10.71
	c-3.04,5.58-10.02,8.38-12.44,14.26c-2.13,5.18,0.52,11.81,5.62,14.11c4.06,1.83,8.76,1.03,13.12,0.12
	c12.24-2.56,24.79-5.76,37.1-3.54c12.31,2.22,24.38,11.75,24.79,24.25c0.36,11.04-8.24,20.46-17.72,26.12
	c-9.48,5.66-21.47,8.86-31.55,4.36c-12.08-5.39-17.31-19.55-27.03-28.53c-1.33-1.23-2.82-2.4-4.59-2.8
	c-4.67-1.06-8.92,4.04-8.74,8.82s3.36,8.89,6.7,12.31c3.06,3.13,6.65,6.65,6.3,11.01c-0.18,2.21-1.41,4.22-2.97,5.79
	c-4.09,4.1-10.72,5.43-16.07,3.21c-5.35-2.22-9.11-7.84-9.1-13.63c0.01-3.14,1.01-6.3,0.41-9.38c-0.6-3.08-3.94-6-6.72-4.53
	c-1.53,0.81-2.23,2.59-2.77,4.23c-3,9.13-4.78,18.62-6.55,28.07c-3.38,18.04-6.77,36.09-10.15,54.13
	c-0.72,3.82-1.47,7.74-3.46,11.08c-2.35,3.94-6.64,6.89-11.23,6.89c-4.59,0-9.17-3.43-9.78-7.98c-0.94-7,6.42-11.8,11.4-16.81
	c8.18-8.22,11.05-20.18,13.57-31.5c2.03-9.11,4.06-18.23,6.09-27.34c1.93-8.66,3.86-17.34,5-26.14c-4.05-1.94-8.1,2.44-10.74,6.07
	c-6.36,8.71-14.46,16.15-23.68,21.75c-1.53,0.93-3.22,1.84-5.01,1.7c-1.09-0.09-2.11-0.57-3.01-1.17
	c-5.76-3.81-6.78-12.6-3.14-18.48c3.64-5.88,10.8-8.9,17.71-9.06c4.52-0.11,9.43,0.76,13.25-1.65c3.4-2.14,4.89-6.25,6.15-10.06
	c0.64-1.93,1.2-4.3-0.16-5.81c-1.08-1.19-2.89-1.29-4.49-1.29c-4.59-0.02-9.17-0.04-13.76-0.06c-2.11-0.01-4.57-0.19-5.77-1.92
	c-1.24-1.79-0.47-4.24,0.49-6.19c3.28-6.61,8.44-12.26,14.73-16.13c2.2,1.16,1.72,4.34,1.89,6.82c0.1,1.44,1.24,2.97,2.58,3.5
	c1.33,0.52,1.92-0.07,2.77-1.03C108.08,100.87,110.58,99.25,110.98,95.95z"/>
<text transform="matrix(1 0 0 1 260.6555 113.0853)" class="st0 st1 st2">ALYCE</text>
<text transform="matrix(1 0 0 1 259.2932 191.9418)" class="st0 st1 st2">ADAMS</text>
</svg>
