<?xml version="1.0" encoding="utf-8"?>
<!-- Generator: Adobe Illustrator 25.1.0, SVG Export Plug-In . SVG Version: 6.00 Build 0)  -->
<svg version="1.1" id="Layer_1" xmlns="http://www.w3.org/2000/svg" xmlns:xlink="http://www.w3.org/1999/xlink" x="0px" y="0px"
	 viewBox="0 0 500 500" style="enable-background:new 0 0 500 500;" xml:space="preserve">
<style type="text/css">
	.st0{fill:#FDB614;}
</style>
<path class="st0" d="M194.15,194.63c0.83-6.71-3.15-12.98-7.06-18.5c-22.52-31.78-48.87-60.85-78.3-86.37
	c-4.74-4.11-9.87-8.68-10.81-14.87c-0.91-6.01,2.42-11.79,5.91-16.77c7.58-10.81,17.24-21.1,29.92-24.79
	c12.68-3.69,28.68,1.59,33.05,14.06c1.57,4.49,1.54,9.36,2.06,14.09c1.67,15.12,9.09,28.92,16.37,42.28
	c11.24,20.63,22.48,41.25,33.72,61.88c4.85,8.91,11.87,19.1,22,18.49c9.74-0.58,15.87-11.59,15.59-21.34
	c-0.28-9.75-4.9-18.76-7.77-28.08c-2.87-9.32-3.67-20.45,2.63-27.9c8.53-10.09,26.09-7.22,34.81,2.71s10.58,24.08,10.53,37.3
	c-0.02,6.49-0.47,13.23-3.58,18.93c-5.38,9.86-17.72,14.8-21.98,25.2c-3.76,9.15,0.91,20.87,9.93,24.94
	c7.17,3.23,15.48,1.82,23.18,0.21c21.64-4.52,43.82-10.19,65.58-6.26c21.76,3.92,43.1,20.77,43.82,42.86
	c0.64,19.51-14.56,36.16-31.32,46.17c-16.75,10.01-37.95,15.67-55.77,7.71c-21.35-9.53-30.6-34.56-47.77-50.43
	c-2.35-2.17-4.98-4.24-8.11-4.95c-8.25-1.87-15.77,7.14-15.45,15.59c0.32,8.45,5.93,15.72,11.84,21.77
	c5.4,5.53,11.76,11.76,11.13,19.46c-0.32,3.9-2.49,7.45-5.26,10.23c-7.23,7.26-18.95,9.6-28.41,5.68
	c-9.46-3.92-16.09-13.86-16.08-24.1c0.01-5.55,1.78-11.13,0.72-16.58s-6.96-10.6-11.87-8.01c-2.7,1.43-3.94,4.57-4.9,7.48
	c-5.3,16.15-8.45,32.91-11.58,49.61c-5.98,31.9-11.97,63.79-17.95,95.69c-1.27,6.76-2.59,13.68-6.12,19.58
	c-4.16,6.97-11.73,12.18-19.85,12.17c-8.12-0.01-16.21-6.06-17.29-14.11c-1.66-12.37,11.35-20.87,20.15-29.71
	c14.46-14.53,19.52-35.68,23.98-55.68c3.59-16.11,7.18-32.22,10.77-48.33c3.41-15.31,6.83-30.65,8.84-46.2
	c-7.16-3.43-14.31,4.32-18.99,10.73c-11.24,15.4-25.55,28.55-41.85,38.44c-2.71,1.64-5.69,3.25-8.85,3c-1.92-0.16-3.72-1-5.33-2.06
	c-10.19-6.74-11.98-22.27-5.54-32.66c6.44-10.38,19.08-15.74,31.3-16.02c7.98-0.19,16.66,1.34,23.42-2.92
	c6-3.78,8.64-11.05,10.87-17.78c1.13-3.42,2.13-7.6-0.28-10.28c-1.9-2.11-5.1-2.27-7.94-2.28c-8.1-0.04-16.21-0.07-24.31-0.11
	c-3.74-0.02-8.07-0.33-10.2-3.4c-2.2-3.16-0.84-7.49,0.87-10.94c5.79-11.68,14.93-21.68,26.03-28.51c3.89,2.05,3.03,7.67,3.33,12.05
	c0.18,2.54,2.19,5.25,4.57,6.19c2.34,0.93,3.4-0.13,4.89-1.83C189.02,203.31,193.43,200.46,194.15,194.63z"/>
</svg>
