<?xml version="1.0" encoding="utf-8"?>
<!-- Generator: Adobe Illustrator 25.2.1, SVG Export Plug-In . SVG Version: 6.00 Build 0)  -->
<svg version="1.1" id="Layer_1" xmlns="http://www.w3.org/2000/svg" xmlns:xlink="http://www.w3.org/1999/xlink" x="0px" y="0px"
	 viewBox="0 0 500 500" style="enable-background:new 0 0 500 500;" xml:space="preserve">
<style type="text/css">
	.st0{fill:#FFFFFF;}
</style>
<g>
	<path class="st0" d="M143.71,301.52c52.86-51.59,75.31-57.29,89.36-58.77c28.41-3.01,41.52,9.18,63.24-1.53
		c30.39-14.98,39.79-56.11,42.29-67.06c6.43-28.15-2.6-31.26,4.35-66.15c4.43-22.24,10.19-49.17,32-61.06
		c0.95-0.52,3.09-1.64,6.11-2.75C311.5,0,221.23-7.89,141.94,31.28C61.21,71.17,12.32,149.74,6.57,233.54
		c9.92-4.05,21.14-9.2,33.62-16.64c19.69-11.74,75.21-44.85,97.27-102.91c12.47-32.83,7.14-54.94,28.38-70.25
		c13.32-9.6,33.95-14.26,52.08-6.53c23.89,10.18,30.43,36.32,30.97,38.64c10.13,43.36-38.85,87.82-53.08,100.74
		c-64.94,58.94-122.31,45.14-143.79,95.72c-10.22,24.08-5.02,45.59-23,56.16c-2.75,1.62-5.71,2.77-8.79,3.54
		c3.15,8.78,6.81,17.48,11.04,26.05c7.13,14.43,15.5,27.82,24.91,40.15C71.03,372.46,103.03,341.23,143.71,301.52z"/>
	<path class="st0" d="M465.46,323.59c-14.57,2.43-23.65,16.26-41.08,43.61c-20.22,31.72-21.64,45.76-37.45,51.87
		c-9.71,3.75-23.44,3.97-30.41-3.26c-11.89-12.33,1.16-40.78,3.89-46.72c7.99-17.41,20.63-31.67,68.85-63.27
		c30.34-19.89,50.66-33.08,64.06-37.8c3.16-42.07-4.55-85.51-24.59-126.08c-5.99-12.12-12.86-23.51-20.48-34.16
		c-0.44,8.41-2.25,19.72-7.03,34.41c-10.98,33.78-23.88,38.39-48.96,81.33c-26.03,44.57-19.51,51.83-37.52,66.54
		c-27.74,22.65-66.15,24.19-75.63,24.57c-28.92,1.15-34.23-7.24-55.16-1.55c-23.27,6.33-37.79,22.45-50.21,36.23
		c-21.7,24.09-31.39,49.45-34.74,59.22c-9.79,28.51-6.61,43.43-11.43,52.47c68.29,39.54,154.45,45.28,230.5,7.7
		c61.13-30.2,104-82.6,123.71-142.64C477,323.9,471.66,322.55,465.46,323.59z"/>
</g>
</svg>
