<?xml version="1.0" encoding="utf-8"?>
<!-- Generator: Adobe Illustrator 25.2.1, SVG Export Plug-In . SVG Version: 6.00 Build 0)  -->
<svg version="1.1" id="Layer_1" xmlns="http://www.w3.org/2000/svg" xmlns:xlink="http://www.w3.org/1999/xlink" x="0px" y="0px"
	 viewBox="0 0 500 500" style="enable-background:new 0 0 500 500;" xml:space="preserve">
<style type="text/css">
	.st0{fill:url(#SVGID_1_);}
	.st1{fill:url(#SVGID_2_);}
	.st2{fill:url(#SVGID_3_);}
</style>
<g>
	<linearGradient id="SVGID_1_" gradientUnits="userSpaceOnUse" x1="-28.9529" y1="252.1517" x2="463.1431" y2="245.4954">
		<stop  offset="5.586592e-03" style="stop-color:#D9B3B0"/>
		<stop  offset="0.2279" style="stop-color:#DCB8AE"/>
		<stop  offset="0.5721" style="stop-color:#E7C7A6"/>
		<stop  offset="0.9933" style="stop-color:#FAE095"/>
		<stop  offset="1" style="stop-color:#FAE195"/>
	</linearGradient>
	<circle class="st0" cx="245.46" cy="248.44" r="60.46"/>
	<linearGradient id="SVGID_2_" gradientUnits="userSpaceOnUse" x1="-30.7109" y1="122.1856" x2="461.3851" y2="115.5292">
		<stop  offset="5.586592e-03" style="stop-color:#D9B3B0"/>
		<stop  offset="0.2279" style="stop-color:#DCB8AE"/>
		<stop  offset="0.5721" style="stop-color:#E7C7A6"/>
		<stop  offset="0.9933" style="stop-color:#FAE095"/>
		<stop  offset="1" style="stop-color:#FAE195"/>
	</linearGradient>
	<path class="st1" d="M245.46,159.05c43.92,0,80.56,31.13,89.08,72.53h162.9C488.01,103.15,380.84,1.88,250,1.88
		S11.99,103.15,2.56,231.58h153.82C164.9,190.18,201.54,159.05,245.46,159.05z"/>
	<linearGradient id="SVGID_3_" gradientUnits="userSpaceOnUse" x1="-27.1409" y1="386.1086" x2="464.9551" y2="379.4523">
		<stop  offset="5.586592e-03" style="stop-color:#D9B3B0"/>
		<stop  offset="0.2279" style="stop-color:#DCB8AE"/>
		<stop  offset="0.5721" style="stop-color:#E7C7A6"/>
		<stop  offset="0.9933" style="stop-color:#FAE095"/>
		<stop  offset="1" style="stop-color:#FAE195"/>
	</linearGradient>
	<path class="st2" d="M245.46,340.95c-43.39,0-79.67-30.38-88.76-71.03H2.67c10.15,127.72,117,228.2,247.33,228.2
		c130.33,0,237.18-100.48,247.33-228.2H334.22C325.13,310.57,288.85,340.95,245.46,340.95z"/>
</g>
</svg>
