<?xml version="1.0" encoding="utf-8"?>
<!-- Generator: Adobe Illustrator 25.2.1, SVG Export Plug-In . SVG Version: 6.00 Build 0)  -->
<svg version="1.1" id="Layer_1" xmlns="http://www.w3.org/2000/svg" xmlns:xlink="http://www.w3.org/1999/xlink" x="0px" y="0px"
	 viewBox="0 0 500 500" style="enable-background:new 0 0 500 500;" xml:space="preserve">
<style type="text/css">
	.st0{opacity:0.56;fill:none;stroke:#74BFBF;stroke-width:10;stroke-miterlimit:10;}
	.st1{opacity:0.83;fill:#74BFBF;}
</style>
<g>
	<circle class="st0" cx="249.41" cy="250.59" r="236.57"/>
	<circle class="st0" cx="249.41" cy="250.59" r="172.16"/>
	<circle class="st0" cx="250.59" cy="251.76" r="110.09"/>
	<circle class="st0" cx="249.41" cy="250.59" r="48.02"/>
	<line class="st0" x1="250.59" y1="249.41" x2="250.59" y2="12.85"/>
	<line class="st0" x1="250.59" y1="249.41" x2="417.86" y2="82.14"/>
	<line class="st0" x1="250.59" y1="249.41" x2="487.15" y2="249.41"/>
	<line class="st0" x1="250.59" y1="249.41" x2="417.86" y2="416.69"/>
	<line class="st0" x1="250.59" y1="249.41" x2="250.59" y2="485.98"/>
	<line class="st0" x1="250.59" y1="249.41" x2="83.31" y2="416.69"/>
	<line class="st0" x1="250.59" y1="249.41" x2="14.02" y2="249.41"/>
	<line class="st0" x1="250.59" y1="249.41" x2="83.31" y2="82.14"/>
	<circle class="st1" cx="115.91" cy="100.68" r="16.4"/>
	<circle class="st1" cx="368.87" cy="274.01" r="16.4"/>
	<circle class="st1" cx="223.65" cy="409.86" r="16.4"/>
	<circle class="st1" cx="284.55" cy="208.42" r="16.4"/>
	<circle class="st1" cx="141.67" cy="250.59" r="16.4"/>
</g>
</svg>
