<?xml version="1.0" encoding="utf-8"?>
<!-- Generator: Adobe Illustrator 25.2.1, SVG Export Plug-In . SVG Version: 6.00 Build 0)  -->
<svg version="1.1" id="Layer_1" xmlns="http://www.w3.org/2000/svg" xmlns:xlink="http://www.w3.org/1999/xlink" x="0px" y="0px"
	 viewBox="0 0 500 500" style="enable-background:new 0 0 500 500;" xml:space="preserve">
<style type="text/css">
	.st0{fill:#FFFFFF;}
</style>
<g>
	<path class="st0" d="M76.1,261.41v-27.81c0-8.87,7.25-16.12,16.12-16.12h151.51l0.44-35.14l-114.54-68.08L13.41,179.44
		l-1.68,133.24l114.54,68.08l116.23-65.16l0.48-38.05H92.22C83.36,277.54,76.1,270.28,76.1,261.41z"/>
	<path class="st0" d="M373.73,119.25L257.5,184.41l-0.42,33.07H412.1c8.87,0,16.12,7.25,16.12,16.12v27.81
		c0,8.87-7.25,16.12-16.12,16.12H256.33l-0.51,40.11l114.54,68.08l116.23-65.16l1.68-133.24L373.73,119.25z"/>
	<polygon class="st0" points="256.87,234.14 257.08,217.49 243.74,217.49 243.53,234.14 	"/>
	<polygon class="st0" points="243.18,261.31 242.98,277.54 256.33,277.54 256.53,261.31 	"/>
	<path class="st0" d="M97.3,234.14c-4.68,0-8.51,3.83-8.51,8.51v10.14c0,4.68,3.83,8.51,8.51,8.51h145.89l0.34-27.17H97.3z"/>
	<path class="st0" d="M403.41,261.31c4.68,0,8.51-3.83,8.51-8.51v-10.14c0-4.68-3.83-8.51-8.51-8.51H256.87l-0.34,27.17H403.41z"/>
</g>
</svg>
