<?xml version="1.0" encoding="utf-8"?>
<!-- Generator: Adobe Illustrator 25.2.1, SVG Export Plug-In . SVG Version: 6.00 Build 0)  -->
<svg version="1.1" id="Layer_1" xmlns="http://www.w3.org/2000/svg" xmlns:xlink="http://www.w3.org/1999/xlink" x="0px" y="0px"
	 viewBox="0 0 500 500" style="enable-background:new 0 0 500 500;" xml:space="preserve">
<style type="text/css">
	.st0{fill:url(#SVGID_1_);}
	.st1{fill:url(#SVGID_2_);}
	.st2{fill:url(#SVGID_3_);}
	.st3{fill:url(#SVGID_4_);}
	.st4{fill:url(#SVGID_5_);}
	.st5{fill:url(#SVGID_6_);}
</style>
<g>
	<linearGradient id="SVGID_1_" gradientUnits="userSpaceOnUse" x1="-164.1554" y1="141.9535" x2="348.6599" y2="-16.4554">
		<stop  offset="5.586592e-03" style="stop-color:#D9B3B0"/>
		<stop  offset="0.2279" style="stop-color:#DCB8AE"/>
		<stop  offset="0.5721" style="stop-color:#E7C7A6"/>
		<stop  offset="0.9933" style="stop-color:#FAE095"/>
		<stop  offset="1" style="stop-color:#FAE195"/>
	</linearGradient>
	<circle class="st0" cx="64.28" cy="71.39" r="46.19"/>
	<linearGradient id="SVGID_2_" gradientUnits="userSpaceOnUse" x1="-113.7884" y1="305.0062" x2="399.027" y2="146.5972">
		<stop  offset="5.586592e-03" style="stop-color:#D9B3B0"/>
		<stop  offset="0.2279" style="stop-color:#DCB8AE"/>
		<stop  offset="0.5721" style="stop-color:#E7C7A6"/>
		<stop  offset="0.9933" style="stop-color:#FAE095"/>
		<stop  offset="1" style="stop-color:#FAE195"/>
	</linearGradient>
	<circle class="st1" cx="64.28" cy="250" r="46.19"/>
	<linearGradient id="SVGID_3_" gradientUnits="userSpaceOnUse" x1="-63.4213" y1="468.0588" x2="449.394" y2="309.6499">
		<stop  offset="5.586592e-03" style="stop-color:#D9B3B0"/>
		<stop  offset="0.2279" style="stop-color:#DCB8AE"/>
		<stop  offset="0.5721" style="stop-color:#E7C7A6"/>
		<stop  offset="0.9933" style="stop-color:#FAE095"/>
		<stop  offset="1" style="stop-color:#FAE195"/>
	</linearGradient>
	<circle class="st2" cx="64.28" cy="428.61" r="46.19"/>
	<linearGradient id="SVGID_4_" gradientUnits="userSpaceOnUse" x1="-145.3176" y1="213.2597" x2="370.7688" y2="53.8403">
		<stop  offset="5.586592e-03" style="stop-color:#D9B3B0"/>
		<stop  offset="0.2279" style="stop-color:#DCB8AE"/>
		<stop  offset="0.5721" style="stop-color:#E7C7A6"/>
		<stop  offset="0.9933" style="stop-color:#FAE095"/>
		<stop  offset="1" style="stop-color:#FAE195"/>
	</linearGradient>
	<path class="st3" d="M472.22,96.02H155.7c-5.33,0-9.69-4.36-9.69-9.69V56.45c0-5.33,4.36-9.69,9.69-9.69h316.52
		c5.33,0,9.69,4.36,9.69,9.69v29.88C481.91,91.66,477.55,96.02,472.22,96.02z"/>
	<linearGradient id="SVGID_5_" gradientUnits="userSpaceOnUse" x1="-94.6293" y1="376.2131" x2="421.4571" y2="216.7937">
		<stop  offset="5.586592e-03" style="stop-color:#D9B3B0"/>
		<stop  offset="0.2279" style="stop-color:#DCB8AE"/>
		<stop  offset="0.5721" style="stop-color:#E7C7A6"/>
		<stop  offset="0.9933" style="stop-color:#FAE095"/>
		<stop  offset="1" style="stop-color:#FAE195"/>
	</linearGradient>
	<path class="st4" d="M472.22,274.64H155.7c-5.33,0-9.69-4.36-9.69-9.69v-29.88c0-5.33,4.36-9.69,9.69-9.69h316.52
		c5.33,0,9.69,4.36,9.69,9.69v29.88C481.91,270.27,477.55,274.64,472.22,274.64z"/>
	<linearGradient id="SVGID_6_" gradientUnits="userSpaceOnUse" x1="-43.941" y1="539.1665" x2="472.1454" y2="379.7472">
		<stop  offset="5.586592e-03" style="stop-color:#D9B3B0"/>
		<stop  offset="0.2279" style="stop-color:#DCB8AE"/>
		<stop  offset="0.5721" style="stop-color:#E7C7A6"/>
		<stop  offset="0.9933" style="stop-color:#FAE095"/>
		<stop  offset="1" style="stop-color:#FAE195"/>
	</linearGradient>
	<path class="st5" d="M472.22,453.25H155.7c-5.33,0-9.69-4.36-9.69-9.69v-29.88c0-5.33,4.36-9.69,9.69-9.69h316.52
		c5.33,0,9.69,4.36,9.69,9.69v29.88C481.91,448.88,477.55,453.25,472.22,453.25z"/>
</g>
</svg>
