<?xml version="1.0" encoding="utf-8"?>
<!-- Generator: Adobe Illustrator 25.2.1, SVG Export Plug-In . SVG Version: 6.00 Build 0)  -->
<svg version="1.1" id="Layer_1" xmlns="http://www.w3.org/2000/svg" xmlns:xlink="http://www.w3.org/1999/xlink" x="0px" y="0px"
	 viewBox="0 0 500 500" style="enable-background:new 0 0 500 500;" xml:space="preserve">
<style type="text/css">
	.st0{fill:#FFFFFF;stroke:#FFFFFF;stroke-miterlimit:10;}
</style>
<g>
	<circle class="st0" cx="212.83" cy="76.91" r="30.77"/>
	<circle class="st0" cx="286.69" cy="22.2" r="12.08"/>
	<circle class="st0" cx="286.69" cy="117.74" r="20.35"/>
	<g>
		<path class="st0" d="M277.71,349.24c-4.13-2.54-12.37-2.22-21.58,5.71c0,0,0.32,1.59,0,5.07c-0.32,3.49,1.9,2.22,4.12,6.03
			c2.22,3.81,3.49,1.27,10.01,4.76c6.52,3.49,4.91-0.32,9.98-2.86c5.08-2.54,3.81-4.44,4.13-8.88
			C284.69,354.64,281.84,351.78,277.71,349.24z"/>
		<path class="st0" d="M243,354.41c-9.45-7.63-17.71-7.68-21.75-5.01c-4.04,2.67-6.8,5.62-6.34,10.05c0.46,4.43-0.75,6.37,4.41,8.75
			c5.16,2.37,3.67,6.23,10.07,2.53c6.4-3.7,7.75-1.2,9.85-5.08c2.1-3.88,4.36-2.69,3.93-6.16C242.74,356.01,243,354.41,243,354.41z"
			/>
		<path class="st0" d="M298.77,255.5v-75.64h2.93c6.93,0,12.61-5.67,12.61-12.61c0-6.93-5.67-12.61-12.61-12.61H198.3
			c-6.93,0-12.61,5.67-12.61,12.61c0,6.93,5.67,12.61,12.61,12.61h2.93v75.64c-43.25,18.84-73.49,61.94-73.49,112.12
			c0,67.52,54.74,122.26,122.26,122.26c67.52,0,122.26-54.74,122.26-122.26C372.26,317.44,342.01,274.34,298.77,255.5z
			 M299.25,373.56l-5.78,1.83c-12.98,2.9-16.52,19.93-16.52,19.93l-1.9,17.49l0.49,3.95c-1.38,8.45-17.42,8.09-27.58,8.09
			c-9.38,0-22.26,0-25.7-6.95v-9.16l-4.02-17.13c0,0-5.49-17.24-18.18-14.28c-1.11,0.26-2.4-2.41-3.14-2.24
			c-0.01-0.31-0.25-1.23-0.25-1.54c0-28.33,22.97-51.29,51.3-51.29S316.29,350.93,299.25,373.56z"/>
	</g>
</g>
</svg>
